<?xml version="1.0" encoding="utf-8"?>
<!-- Generator: Adobe Illustrator 16.0.0, SVG Export Plug-In . SVG Version: 6.00 Build 0)  -->
<!DOCTYPE svg PUBLIC "-//W3C//DTD SVG 1.1//EN" "http://www.w3.org/Graphics/SVG/1.1/DTD/svg11.dtd">
<svg version="1.1" id="Layer_1" xmlns="http://www.w3.org/2000/svg" xmlns:xlink="http://www.w3.org/1999/xlink" x="0px" y="0px"
	 width="589.922px" height="129.457px" viewBox="0 0 589.922 129.457" enable-background="new 0 0 589.922 129.457"
	 xml:space="preserve">
<line fill="none" stroke="#7AC943" stroke-width="8" stroke-miterlimit="10" x1="38.364" y1="67.421" x2="38.364" y2="107.421"/>
<line fill="none" stroke="#3FA9F5" stroke-width="8" stroke-miterlimit="10" x1="67.364" y1="67.421" x2="67.364" y2="107.421"/>
<line fill="none" stroke="#FF931E" stroke-width="8" stroke-miterlimit="10" x1="97.364" y1="67.421" x2="97.364" y2="107.421"/>
<line fill="none" stroke="#FF1D25" stroke-width="8" stroke-miterlimit="10" x1="127.364" y1="67.421" x2="127.364" y2="107.421"/>
<line fill="none" stroke="#3FA9F5" stroke-width="8" stroke-miterlimit="10" x1="157.364" y1="67.421" x2="157.364" y2="107.421"/>
<line fill="none" stroke="#7AC943" stroke-width="8" stroke-miterlimit="10" x1="186.364" y1="67.421" x2="186.364" y2="107.421"/>
<line fill="none" stroke="#FF931E" stroke-width="8" stroke-miterlimit="10" x1="216.364" y1="67.421" x2="216.364" y2="107.421"/>
<line fill="none" stroke="#FF1D25" stroke-width="8" stroke-miterlimit="10" x1="66.364" y1="58.421" x2="66.364" y2="18.421"/>
<line fill="none" stroke="#FF931E" stroke-width="8" stroke-miterlimit="10" x1="37.364" y1="58.421" x2="37.364" y2="18.421"/>
<line fill="none" stroke="#000000" stroke-width="8" stroke-miterlimit="10" x1="239.209" y1="107.421" x2="13.364" y2="107.421"/>
<line fill="none" stroke="#3FA9F5" stroke-width="8" stroke-miterlimit="10" x1="127.612" y1="18.522" x2="127.612" y2="58.522"/>
<line fill="none" stroke="#7AC943" stroke-width="8" stroke-miterlimit="10" x1="97.364" y1="18.522" x2="97.364" y2="58.522"/>
<line fill="none" stroke="#FF1D25" stroke-width="8" stroke-miterlimit="10" x1="157.364" y1="18.421" x2="157.364" y2="58.421"/>
<line fill="none" stroke="#FF931E" stroke-width="8" stroke-miterlimit="10" x1="186.364" y1="18.421" x2="186.364" y2="58.421"/>
<line fill="none" stroke="#7AC943" stroke-width="8" stroke-miterlimit="10" x1="216.364" y1="18.522" x2="216.364" y2="58.522"/>
<line fill="none" stroke="#000000" stroke-width="8" stroke-miterlimit="10" x1="239.209" y1="18.421" x2="13.364" y2="18.421"/>
<line fill="none" stroke="#FF931E" stroke-width="8" stroke-miterlimit="10" x1="466.751" y1="58.522" x2="466.751" y2="18.522"/>
<line fill="none" stroke="#3FA9F5" stroke-width="8" stroke-miterlimit="10" x1="437.751" y1="58.522" x2="437.751" y2="18.522"/>
<line fill="none" stroke="#7AC943" stroke-width="8" stroke-miterlimit="10" x1="407.751" y1="58.522" x2="407.751" y2="18.522"/>
<line fill="none" stroke="#FF1D25" stroke-width="8" stroke-miterlimit="10" x1="377.751" y1="58.522" x2="377.751" y2="18.522"/>
<line fill="none" stroke="#FF1D25" stroke-width="8" stroke-miterlimit="10" x1="438.751" y1="67.522" x2="438.751" y2="107.522"/>
<line fill="none" stroke="#7AC943" stroke-width="8" stroke-miterlimit="10" x1="467.751" y1="67.522" x2="467.751" y2="107.522"/>
<line fill="none" stroke="#3FA9F5" stroke-width="8" stroke-miterlimit="10" x1="377.503" y1="107.421" x2="377.503" y2="67.421"/>
<line fill="none" stroke="#FF931E" stroke-width="8" stroke-miterlimit="10" x1="407.751" y1="107.421" x2="407.751" y2="67.421"/>
<line fill="none" stroke="#FF1D25" stroke-width="8" stroke-miterlimit="10" x1="347.751" y1="107.522" x2="347.751" y2="67.522"/>
<line fill="none" stroke="#7AC943" stroke-width="8" stroke-miterlimit="10" x1="318.751" y1="107.522" x2="318.751" y2="67.522"/>
<line fill="none" stroke="#FF931E" stroke-width="8" stroke-miterlimit="10" x1="288.751" y1="107.421" x2="288.751" y2="67.421"/>
<line fill="none" stroke="#000000" stroke-width="8" stroke-miterlimit="10" x1="265.906" y1="107.522" x2="491.75" y2="107.522"/>
<line fill="none" stroke="#FF931E" stroke-width="8" stroke-miterlimit="10" x1="553.806" y1="58.522" x2="553.806" y2="18.522"/>
<line fill="none" stroke="#3FA9F5" stroke-width="8" stroke-miterlimit="10" x1="524.806" y1="58.522" x2="524.806" y2="18.522"/>
<line fill="none" stroke="#7AC943" stroke-width="8" stroke-miterlimit="10" x1="494.806" y1="58.522" x2="494.806" y2="18.522"/>
<line fill="none" stroke="#000000" stroke-width="8" stroke-miterlimit="10" x1="359.905" y1="18.523" x2="568.991" y2="18.523"/>
<g>
</g>
<g>
</g>
<g>
</g>
<g>
</g>
<g>
</g>
<g>
</g>
<g>
</g>
<g>
</g>
<g>
</g>
<g>
</g>
<g>
</g>
<g>
</g>
<g>
</g>
<g>
</g>
<g>
</g>
</svg>
