<?xml version="1.0" encoding="utf-8"?>
<!-- Generator: Adobe Illustrator 15.0.0, SVG Export Plug-In . SVG Version: 6.00 Build 0)  -->
<!DOCTYPE svg PUBLIC "-//W3C//DTD SVG 1.1//EN" "http://www.w3.org/Graphics/SVG/1.1/DTD/svg11.dtd">
<svg version="1.1" id="Layer_1" xmlns="http://www.w3.org/2000/svg" xmlns:xlink="http://www.w3.org/1999/xlink" x="0px" y="0px"
	 width="612px" height="792px" viewBox="0 0 612 792" enable-background="new 0 0 612 792" xml:space="preserve">
<g>
	<g>
		<g>
			<path fill="#676767" d="M41.309,118.84c1.68,2.629,4.52,4.064,7.425,4.064c1.62,0,3.263-0.447,4.729-1.385
				c4.097-2.617,5.295-8.059,2.678-12.154L35.828,77.572l20.313-31.791c2.617-4.096,1.419-9.537-2.678-12.154
				c-4.098-2.615-9.536-1.418-12.153,2.678L17.969,72.834c-1.848,2.889-1.848,6.588,0,9.477L41.309,118.84z"/>
			<path fill="#676767" d="M135.938,121.518c1.467,0.938,3.108,1.385,4.729,1.385c2.901,0,5.745-1.434,7.423-4.064l23.342-36.527
				c1.847-2.891,1.847-6.59,0-9.477l-23.34-36.529c-2.616-4.098-8.061-5.297-12.153-2.678c-4.095,2.617-5.294,8.059-2.677,12.154
				l20.313,31.791l-20.314,31.791C130.643,113.457,131.841,118.9,135.938,121.518z"/>
			<path fill="#676767" d="M64.229,140.742c1.228,0.588,2.523,0.867,3.8,0.867c3.279,0,6.428-1.84,7.941-4.996l53.345-111.24
				c2.102-4.383,0.253-9.641-4.128-11.74c-4.385-2.102-9.642-0.254-11.741,4.129L60.1,129.002
				C57.998,133.385,59.847,138.643,64.229,140.742z"/>
		</g>
	</g>
</g>
</svg>
