<?xml version="1.0" encoding="utf-8"?>
<!-- Generator: Adobe Illustrator 15.0.0, SVG Export Plug-In . SVG Version: 6.00 Build 0)  -->
<!DOCTYPE svg PUBLIC "-//W3C//DTD SVG 1.1//EN" "http://www.w3.org/Graphics/SVG/1.1/DTD/svg11.dtd">
<svg version="1.1" id="Layer_1" xmlns="http://www.w3.org/2000/svg" xmlns:xlink="http://www.w3.org/1999/xlink" x="0px" y="0px"
	 width="612px" height="792px" viewBox="0 0 612 792" enable-background="new 0 0 612 792" xml:space="preserve">
<g>
	<path fill-rule="evenodd" clip-rule="evenodd" fill="#FFD108" d="M150.001,130.029c0,11.867-29.238,21.486-65.304,21.486
		c-36.067,0-65.304-9.619-65.304-21.486v-26.202h130.607V130.029z"/>
	<path fill-rule="evenodd" clip-rule="evenodd" fill="#EAC01E" d="M84.697,125.312c35.968,0,65.304-9.652,65.304-21.485
		c0-11.834-29.336-21.486-65.304-21.486s-65.304,9.652-65.304,21.486C19.394,115.66,48.729,125.312,84.697,125.312z"/>
	<path fill-rule="evenodd" clip-rule="evenodd" fill="#FFD108" d="M150.001,94.393c0,11.867-29.238,21.486-65.304,21.486
		c-36.067,0-65.304-9.619-65.304-21.486V68.191h130.607V94.393z"/>
	<path fill-rule="evenodd" clip-rule="evenodd" fill="#EAC01E" d="M84.697,89.676c35.968,0,65.304-9.652,65.304-21.485
		s-29.336-21.485-65.304-21.485s-65.304,9.652-65.304,21.485S48.729,89.676,84.697,89.676z"/>
	<path fill-rule="evenodd" clip-rule="evenodd" fill="#FFD108" d="M150.001,59.205c0,11.866-29.238,21.485-65.304,21.485
		c-36.067,0-65.304-9.619-65.304-21.485V33.002h130.607V59.205z"/>
	<path fill-rule="evenodd" clip-rule="evenodd" fill="#FEE057" d="M84.697,54.488c35.968,0,65.304-9.651,65.304-21.485
		c0-11.836-29.336-21.487-65.304-21.487s-65.304,9.651-65.304,21.487C19.394,44.836,48.729,54.488,84.697,54.488z"/>
</g>
</svg>
