<?xml version="1.0" encoding="utf-8"?>
<!-- Generator: Adobe Illustrator 15.0.0, SVG Export Plug-In . SVG Version: 6.00 Build 0)  -->
<!DOCTYPE svg PUBLIC "-//W3C//DTD SVG 1.1//EN" "http://www.w3.org/Graphics/SVG/1.1/DTD/svg11.dtd">
<svg version="1.1" id="svg2453" xmlns:svg="http://www.w3.org/2000/svg"
	 xmlns="http://www.w3.org/2000/svg" xmlns:xlink="http://www.w3.org/1999/xlink" x="0px" y="0px" width="700px" height="483px"
	 viewBox="0 0 700 483" enable-background="new 0 0 700 483" xml:space="preserve">
<path id="path4124" fill="#FF0000" d="M414.938,0.656C314.761,3.13,301.942,36.32,175,49.531
	c193.517,26.54,195.416,167.573,345.063,174.375v-0.625l179.313,1.25L698.75,0.656H414.938z M699.344,258.344L629.688,259
	c-60.177,24.102-74.234,93.753-184.281,106.125c101.941,36.271,127.019,98.315,214.219,117.219c23.604,0.222,40.375,0,40.375,0
	L699.344,258.344z M299.531,285.031c0,0-149.128,1.309-189.5,48.844C263.055,349.503,299.531,285.031,299.531,285.031z"/>
<path id="path4122" fill="#00FF00" d="M700.656-0.813l-296.938,3.25c-89.735,21.962-193.4,138.711-284.563,149.781
	C276.738,185.428,345.377,217.486,413.5,224.5l287.156,1.938V-0.813z M440.844,257.031c-126.977,0-182.985,126.334-321.031,153.031
	C261.484,439.525,350.265,480.006,442.125,483c93.497-1.505,257.219,0,257.219,0l-1.313-222.688L440.844,257.031z"/>
<path id="path2502" fill="#FFFF00" d="M566.469,0.656l-162.75,1.781c-42.641,10.436-88.437,42.268-134.531,74
	c105.725,49.734,130.538,141.999,250.875,147.469v-0.625l179.313,1.25L698.75,0.656H566.469z M628.656,259.438
	c-59.299,24.484-73.843,93.387-183.25,105.688c101.941,36.271,127.019,98.315,214.219,117.219c22.92,0.215,38.785,0.012,39.719,0
	l-1.313-222.031L628.656,259.438z"/>
<text transform="matrix(1 0 0 1 475.3486 92.9531)" font-family="'TimesNewRomanPS-BoldItalicMT'" font-size="36">AB</text>
<text transform="matrix(1 0 0 1 579.5352 352.7676)" font-family="'TimesNewRomanPS-BoldItalicMT'" font-size="36">AB</text>
<text transform="matrix(1 0 0 1 279.3486 160.6748)" font-family="'TimesNewRomanPS-BoldItalicMT'" font-size="36">Ab</text>
<text transform="matrix(1 0 0 1 327.5352 361.2324)" font-family="'TimesNewRomanPS-BoldItalicMT'" font-size="36">Ab</text>
<text transform="matrix(1 0 0 1 130.2324 119)" font-family="'TimesNewRomanPS-BoldItalicMT'" font-size="36">ab</text>
<text transform="matrix(1 0 0 1 47.5352 425.0469)" font-family="'TimesNewRomanPS-BoldItalicMT'" font-size="36">ab</text>
<text transform="matrix(1 0 0 1 250.6978 61.0469)" font-family="'TimesNewRomanPS-BoldItalicMT'" font-size="36">aB</text>
<text transform="matrix(1 0 0 1 197.3022 321.5117)" font-family="'TimesNewRomanPS-BoldItalicMT'" font-size="36">aB</text>
<rect id="rect3324" x="2.051" y="1.512" fill="none" stroke="#000000" stroke-width="4.1022" width="695.898" height="221.437"/>
<rect id="rect3326" x="2.051" y="259.512" fill="none" stroke="#000000" stroke-width="4.1022" width="695.898" height="221.438"/>
<path fill="none" d=""/>
<path id="path3338" stroke="#000000" d="M660,233l-6,6l21-6l-21-6L660,233z"/>
<path id="path3330" stroke="#000000" d="M675,233"/>
<text transform="matrix(1 0 0 1 578.2324 251.8369)" font-family="'TimesNewRomanPS-BoldMT'" font-size="24">Time</text>
</svg>
