<?xml version="1.0" encoding="utf-8"?>
<!-- Generator: Adobe Illustrator 16.0.0, SVG Export Plug-In . SVG Version: 6.00 Build 0)  -->
<!DOCTYPE svg PUBLIC "-//W3C//DTD SVG 1.1//EN" "http://www.w3.org/Graphics/SVG/1.1/DTD/svg11.dtd">
<svg version="1.1" id="Layer_1" xmlns="http://www.w3.org/2000/svg" xmlns:xlink="http://www.w3.org/1999/xlink" x="0px" y="0px"
	 width="751.283px" height="478.372px" viewBox="0 0 751.283 478.372" enable-background="new 0 0 751.283 478.372"
	 xml:space="preserve">
<polygon fill="#3FA9F5" points="165.78,342.358 11.781,341.711 43.132,278.043 138.58,277.917 "/>
<circle fill="none" stroke="#3FA9F5" stroke-width="2" stroke-miterlimit="10" cx="94.213" cy="242.63" r="5.815"/>
<circle fill="none" stroke="#3FA9F5" stroke-width="2" stroke-miterlimit="10" cx="94.114" cy="264.624" r="3.933"/>
<circle fill="none" stroke="#3FA9F5" stroke-width="2" stroke-miterlimit="10" cx="83.546" cy="255.976" r="2.916"/>
<line fill="none" stroke="#333333" stroke-width="10" stroke-linecap="round" stroke-miterlimit="10" x1="59.515" y1="166.91" x2="59.188" y2="244.91"/>
<line fill="none" stroke="#333333" stroke-width="10" stroke-linecap="round" stroke-linejoin="round" stroke-miterlimit="10" x1="58.684" y1="245.909" x2="12.456" y2="341.434"/>
<line fill="none" stroke="#333333" stroke-width="10" stroke-linecap="round" stroke-linejoin="round" stroke-miterlimit="10" x1="166.776" y1="343.362" x2="12.777" y2="342.715"/>
<line fill="none" stroke="#333333" stroke-width="10" stroke-linecap="round" stroke-miterlimit="10" x1="124.51" y1="168.183" x2="132.51" y2="168.216"/>
<line fill="none" stroke="#333333" stroke-width="10" stroke-linecap="round" stroke-miterlimit="10" x1="123.51" y1="168.179" x2="123.196" y2="243.178"/>
<line fill="none" stroke="#333333" stroke-width="10" stroke-linecap="round" stroke-miterlimit="10" x1="50.515" y1="166.873" x2="58.515" y2="166.906"/>
<line fill="none" stroke="#333333" stroke-width="10" stroke-linecap="round" stroke-linejoin="round" stroke-miterlimit="10" x1="167.017" y1="340.266" x2="123.191" y2="244.178"/>
<polygon fill="#7AC943" points="360.774,344.188 206.775,343.542 238.127,279.875 333.573,279.747 "/>
<circle fill="none" stroke="#7AC943" stroke-width="2" stroke-miterlimit="10" cx="281.211" cy="243.427" r="5.815"/>
<circle fill="none" stroke="#7AC943" stroke-width="2" stroke-miterlimit="10" cx="283.113" cy="265.429" r="3.932"/>
<circle fill="none" stroke="#7AC943" stroke-width="2" stroke-miterlimit="10" cx="295.544" cy="256.877" r="2.916"/>
<line fill="none" stroke="#333333" stroke-width="10" stroke-linecap="round" stroke-miterlimit="10" x1="254.509" y1="168.741" x2="254.182" y2="246.741"/>
<line fill="none" stroke="#333333" stroke-width="10" stroke-linecap="round" stroke-linejoin="round" stroke-miterlimit="10" x1="253.677" y1="247.738" x2="207.451" y2="343.264"/>
<line fill="none" stroke="#333333" stroke-width="10" stroke-linecap="round" stroke-linejoin="round" stroke-miterlimit="10" x1="361.77" y1="345.194" x2="207.771" y2="344.545"/>
<line fill="none" stroke="#333333" stroke-width="10" stroke-linecap="round" stroke-miterlimit="10" x1="319.504" y1="170.013" x2="327.504" y2="170.047"/>
<line fill="none" stroke="#333333" stroke-width="10" stroke-linecap="round" stroke-miterlimit="10" x1="318.504" y1="170.009" x2="318.189" y2="245.008"/>
<line fill="none" stroke="#333333" stroke-width="10" stroke-linecap="round" stroke-miterlimit="10" x1="245.509" y1="168.703" x2="253.509" y2="168.737"/>
<line fill="none" stroke="#333333" stroke-width="10" stroke-linecap="round" stroke-linejoin="round" stroke-miterlimit="10" x1="362.011" y1="342.098" x2="318.185" y2="246.008"/>
<polygon fill="#FF931E" points="551.768,345.991 397.769,345.344 429.12,281.674 524.567,281.545 "/>
<circle fill="none" stroke="#FF931E" stroke-width="2" stroke-miterlimit="10" cx="477.21" cy="244.25" r="5.815"/>
<circle fill="none" stroke="#FF931E" stroke-width="2" stroke-miterlimit="10" cx="464.098" cy="269.188" r="3.934"/>
<circle fill="none" stroke="#FF931E" stroke-width="2" stroke-miterlimit="10" cx="477.521" cy="262.641" r="2.916"/>
<line fill="none" stroke="#333333" stroke-width="10" stroke-linecap="round" stroke-miterlimit="10" x1="445.502" y1="170.542" x2="445.175" y2="248.542"/>
<line fill="none" stroke="#333333" stroke-width="10" stroke-linecap="round" stroke-linejoin="round" stroke-miterlimit="10" x1="444.671" y1="249.54" x2="398.444" y2="345.067"/>
<line fill="none" stroke="#333333" stroke-width="10" stroke-linecap="round" stroke-linejoin="round" stroke-miterlimit="10" x1="552.764" y1="346.995" x2="398.765" y2="346.348"/>
<line fill="none" stroke="#333333" stroke-width="10" stroke-linecap="round" stroke-miterlimit="10" x1="510.498" y1="171.814" x2="518.499" y2="171.848"/>
<line fill="none" stroke="#333333" stroke-width="10" stroke-linecap="round" stroke-miterlimit="10" x1="509.498" y1="171.811" x2="509.183" y2="246.81"/>
<line fill="none" stroke="#333333" stroke-width="10" stroke-linecap="round" stroke-miterlimit="10" x1="436.503" y1="170.504" x2="444.503" y2="170.538"/>
<line fill="none" stroke="#333333" stroke-width="10" stroke-linecap="round" stroke-linejoin="round" stroke-miterlimit="10" x1="553.005" y1="343.899" x2="509.178" y2="247.81"/>
<polygon fill="#FF1D25" points="737.766,346.768 583.767,346.124 615.119,282.456 710.565,282.327 "/>
<circle fill="none" stroke="#FF1D25" stroke-width="2" stroke-miterlimit="10" cx="663.208" cy="245.03" r="5.815"/>
<circle fill="none" stroke="#FF1D25" stroke-width="2" stroke-miterlimit="10" cx="650.096" cy="269.968" r="3.933"/>
<circle fill="none" stroke="#FF1D25" stroke-width="2" stroke-miterlimit="10" cx="663.52" cy="263.42" r="2.916"/>
<line fill="none" stroke="#333333" stroke-width="10" stroke-linecap="round" stroke-miterlimit="10" x1="631.501" y1="171.322" x2="631.174" y2="249.323"/>
<line fill="none" stroke="#333333" stroke-width="10" stroke-linecap="round" stroke-linejoin="round" stroke-miterlimit="10" x1="630.669" y1="250.32" x2="584.443" y2="345.846"/>
<line fill="none" stroke="#333333" stroke-width="10" stroke-linecap="round" stroke-linejoin="round" stroke-miterlimit="10" x1="738.763" y1="347.774" x2="584.764" y2="347.127"/>
<line fill="none" stroke="#333333" stroke-width="10" stroke-linecap="round" stroke-miterlimit="10" x1="696.497" y1="172.594" x2="704.497" y2="172.628"/>
<line fill="none" stroke="#333333" stroke-width="10" stroke-linecap="round" stroke-miterlimit="10" x1="695.497" y1="172.59" x2="695.182" y2="247.588"/>
<line fill="none" stroke="#333333" stroke-width="10" stroke-linecap="round" stroke-miterlimit="10" x1="622.501" y1="171.285" x2="630.501" y2="171.318"/>
<line fill="none" stroke="#333333" stroke-width="10" stroke-linecap="round" stroke-linejoin="round" stroke-miterlimit="10" x1="739.004" y1="344.678" x2="695.177" y2="248.588"/>
<g>
	<rect x="194.974" y="9.437" fill="none" width="376.922" height="108.975"/>
	<path fill="#3FA9F5" d="M254.15,9.436v14.041c0,1.032,0.024,2.208,0.096,3h-1.896l-0.096-2.017h-0.048
		c-0.648,1.297-2.064,2.28-3.96,2.28c-2.808,0-4.968-2.376-4.968-5.904c-0.024-3.864,2.376-6.24,5.208-6.24
		c1.776,0,2.976,0.84,3.504,1.776h0.048V9.436H254.15z M252.038,19.588c0-0.264-0.024-0.624-0.096-0.888
		c-0.312-1.345-1.464-2.448-3.048-2.448c-2.184,0-3.48,1.92-3.48,4.488c0,2.352,1.152,4.296,3.432,4.296
		c1.416,0,2.712-0.936,3.096-2.52c0.072-0.288,0.096-0.576,0.096-0.912V19.588z"/>
	<path fill="#3FA9F5" d="M260.342,21.388l-1.68,5.089h-2.16l5.497-16.178h2.52l5.521,16.178h-2.232l-1.729-5.089H260.342z
		 M265.646,19.756l-1.584-4.656c-0.36-1.056-0.6-2.017-0.84-2.952h-0.048c-0.24,0.96-0.504,1.944-0.816,2.928l-1.584,4.681
		L265.646,19.756L265.646,19.756z"/>
	<path fill="#3FA9F5" d="M273.638,12.075h-4.92v-1.776h11.977v1.776h-4.944v14.401h-2.112L273.638,12.075L273.638,12.075z"/>
	<path fill="#3FA9F5" d="M282.493,10.491c1.008-0.168,2.328-0.312,4.008-0.312c2.064,0,3.576,0.48,4.537,1.345
		c0.888,0.768,1.416,1.944,1.416,3.384c0,1.465-0.432,2.616-1.248,3.457c-1.104,1.176-2.904,1.775-4.945,1.775
		c-0.624,0-1.2-0.023-1.68-0.144v6.48h-2.088V10.491L282.493,10.491z M284.581,18.292c0.456,0.12,1.032,0.168,1.729,0.168
		c2.52,0,4.056-1.225,4.056-3.456c0-2.137-1.512-3.169-3.816-3.169c-0.912,0-1.608,0.072-1.968,0.168L284.581,18.292L284.581,18.292
		z"/>
	<path d="M306.446,13.707v5.641h5.424v1.44h-5.424v5.688h-1.536v-5.688h-5.425v-1.44h5.425v-5.641H306.446z"/>
	<path fill="#7AC943" d="M329.702,9.436v14.041c0,1.032,0.024,2.208,0.096,3h-1.896l-0.096-2.017h-0.048
		c-0.648,1.297-2.064,2.28-3.96,2.28c-2.808,0-4.968-2.376-4.968-5.904c-0.024-3.864,2.376-6.24,5.208-6.24
		c1.776,0,2.976,0.84,3.504,1.776h0.048V9.436H329.702z M327.59,19.588c0-0.264-0.024-0.624-0.096-0.888
		c-0.312-1.345-1.464-2.448-3.048-2.448c-2.184,0-3.48,1.92-3.48,4.488c0,2.352,1.152,4.296,3.432,4.296
		c1.416,0,2.712-0.936,3.096-2.52c0.072-0.288,0.096-0.576,0.096-0.912V19.588z"/>
	<path fill="#7AC943" d="M344.582,25.948c-0.768,0.385-2.304,0.769-4.272,0.769c-4.561,0-7.993-2.881-7.993-8.185
		c0-5.064,3.432-8.497,8.449-8.497c2.016,0,3.288,0.432,3.84,0.72l-0.504,1.704c-0.792-0.384-1.92-0.672-3.264-0.672
		c-3.792,0-6.312,2.425-6.312,6.673c0,3.96,2.28,6.505,6.216,6.505c1.272,0,2.568-0.265,3.409-0.673L344.582,25.948z"/>
	<path fill="#7AC943" d="M350.941,12.075h-4.92v-1.776h11.977v1.776h-4.944v14.401h-2.112L350.941,12.075L350.941,12.075z"/>
	<path fill="#7AC943" d="M359.797,10.491c1.008-0.168,2.328-0.312,4.008-0.312c2.064,0,3.576,0.48,4.537,1.345
		c0.888,0.768,1.416,1.944,1.416,3.384c0,1.465-0.432,2.616-1.248,3.457c-1.104,1.176-2.904,1.775-4.945,1.775
		c-0.624,0-1.2-0.023-1.68-0.144v6.48h-2.088V10.491L359.797,10.491z M361.885,18.292c0.456,0.12,1.032,0.168,1.729,0.168
		c2.52,0,4.056-1.225,4.056-3.456c0-2.137-1.512-3.169-3.816-3.169c-0.912,0-1.608,0.072-1.968,0.168v6.289H361.885z"/>
	<path d="M383.75,13.707v5.641h5.424v1.44h-5.424v5.688h-1.536v-5.688h-5.425v-1.44h5.425v-5.641H383.75z"/>
	<path fill="#FF931E" d="M407.005,9.436v14.041c0,1.032,0.024,2.208,0.096,3h-1.896l-0.096-2.017h-0.049
		c-0.647,1.297-2.063,2.28-3.96,2.28c-2.808,0-4.968-2.376-4.968-5.904c-0.023-3.864,2.376-6.24,5.208-6.24
		c1.776,0,2.977,0.84,3.504,1.776h0.048V9.436H407.005z M404.893,19.588c0-0.264-0.023-0.624-0.096-0.888
		c-0.312-1.345-1.464-2.448-3.048-2.448c-2.185,0-3.48,1.92-3.48,4.488c0,2.352,1.152,4.296,3.433,4.296
		c1.416,0,2.712-0.936,3.096-2.52c0.072-0.288,0.096-0.576,0.096-0.912V19.588z"/>
	<path fill="#FF931E" d="M422.893,25.757c-0.937,0.336-2.783,0.888-4.968,0.888c-2.449,0-4.465-0.624-6.049-2.136
		c-1.392-1.345-2.256-3.505-2.256-6.025c0.023-4.824,3.336-8.353,8.76-8.353c1.873,0,3.336,0.408,4.033,0.744l-0.504,1.704
		c-0.865-0.384-1.945-0.695-3.577-0.695c-3.936,0-6.504,2.447-6.504,6.504c0,4.104,2.472,6.528,6.241,6.528
		c1.368,0,2.304-0.191,2.783-0.432V19.66h-3.288v-1.681h5.328V25.757z"/>
	<path fill="#FF931E" d="M429.156,12.075h-4.92v-1.776h11.977v1.776h-4.943v14.401h-2.112L429.156,12.075L429.156,12.075z"/>
	<path fill="#FF931E" d="M438.011,10.491c1.008-0.168,2.328-0.312,4.009-0.312c2.063,0,3.576,0.48,4.536,1.345
		c0.89,0.768,1.416,1.944,1.416,3.384c0,1.465-0.432,2.616-1.248,3.457c-1.104,1.176-2.903,1.775-4.943,1.775
		c-0.624,0-1.2-0.023-1.682-0.144v6.48h-2.088V10.491z M440.099,18.292c0.457,0.12,1.033,0.168,1.729,0.168
		c2.521,0,4.057-1.225,4.057-3.456c0-2.137-1.512-3.169-3.815-3.169c-0.912,0-1.607,0.072-1.97,0.168L440.099,18.292L440.099,18.292
		z"/>
	<path d="M461.964,13.707v5.641h5.424v1.44h-5.424v5.688h-1.536v-5.688h-5.425v-1.44h5.425v-5.641H461.964z"/>
	<path fill="#FF1D25" d="M485.22,9.436v14.041c0,1.032,0.023,2.208,0.097,3h-1.896l-0.096-2.017h-0.048
		c-0.647,1.297-2.063,2.28-3.96,2.28c-2.81,0-4.97-2.376-4.97-5.904c-0.022-3.864,2.376-6.24,5.209-6.24
		c1.775,0,2.977,0.84,3.505,1.776h0.048V9.436H485.22z M483.108,19.588c0-0.264-0.024-0.624-0.098-0.888
		c-0.312-1.345-1.463-2.448-3.047-2.448c-2.186,0-3.479,1.92-3.479,4.488c0,2.352,1.15,4.296,3.432,4.296
		c1.416,0,2.713-0.936,3.096-2.52c0.072-0.288,0.098-0.576,0.098-0.912L483.108,19.588L483.108,19.588z"/>
	<path fill="#FF1D25" d="M491.867,12.075h-4.92v-1.776h11.977v1.776h-4.943v14.401h-2.112L491.867,12.075L491.867,12.075z"/>
	<path fill="#FF1D25" d="M504.707,12.075h-4.92v-1.776h11.977v1.776h-4.943v14.401h-2.112L504.707,12.075L504.707,12.075z"/>
	<path fill="#FF1D25" d="M513.562,10.491c1.008-0.168,2.327-0.312,4.008-0.312c2.063,0,3.576,0.48,4.537,1.345
		c0.888,0.768,1.416,1.944,1.416,3.384c0,1.465-0.433,2.616-1.248,3.457c-1.104,1.176-2.904,1.775-4.945,1.775
		c-0.623,0-1.199-0.023-1.68-0.144v6.48h-2.088V10.491z M515.65,18.292c0.456,0.12,1.031,0.168,1.729,0.168
		c2.521,0,4.057-1.225,4.057-3.456c0-2.137-1.513-3.169-3.815-3.169c-0.912,0-1.608,0.072-1.969,0.168L515.65,18.292L515.65,18.292z
		"/>
	<path d="M301.896,39.315c1.272-0.192,2.784-0.337,4.44-0.337c3,0,5.136,0.696,6.552,2.017c1.44,1.32,2.28,3.192,2.28,5.809
		c0,2.641-0.816,4.801-2.328,6.288c-1.512,1.513-4.008,2.328-7.152,2.328c-1.488,0-2.736-0.071-3.792-0.191V39.315z M303.984,53.62
		c0.528,0.096,1.296,0.12,2.112,0.12c4.464,0,6.889-2.496,6.889-6.864c0.024-3.816-2.136-6.241-6.553-6.241
		c-1.08,0-1.896,0.097-2.448,0.217V53.62z"/>
	<path d="M317.88,55.276V39.099h2.28l5.184,8.185c1.2,1.896,2.136,3.601,2.904,5.257l0.048-0.023
		c-0.192-2.161-0.24-4.129-0.24-6.649V39.1h1.968v16.178h-2.112l-5.136-8.209c-1.128-1.8-2.208-3.648-3.024-5.4l-0.072,0.024
		c0.12,2.04,0.168,3.984,0.168,6.673v6.912h-1.968V55.276z"/>
	<path d="M336.288,50.188l-1.68,5.089h-2.16l5.497-16.178h2.52l5.521,16.178h-2.232l-1.729-5.089H336.288z M341.592,48.556
		l-1.584-4.656c-0.36-1.056-0.6-2.017-0.84-2.952h-0.048c-0.24,0.96-0.504,1.944-0.816,2.928l-1.584,4.681L341.592,48.556
		L341.592,48.556z"/>
	<path d="M353.448,39.291c1.008-0.168,2.328-0.312,4.008-0.312c2.064,0,3.576,0.48,4.536,1.345c0.888,0.768,1.417,1.944,1.417,3.384
		c0,1.465-0.432,2.616-1.248,3.457c-1.104,1.176-2.904,1.775-4.945,1.775c-0.624,0-1.2-0.023-1.68-0.144v6.48h-2.088V39.291z
		 M355.536,47.092c0.456,0.12,1.032,0.168,1.729,0.168c2.52,0,4.056-1.225,4.056-3.456c0-2.137-1.512-3.169-3.816-3.169
		c-0.912,0-1.608,0.072-1.968,0.168L355.536,47.092L355.536,47.092z"/>
	<path d="M376.057,49.372c0,4.296-2.977,6.168-5.785,6.168c-3.144,0-5.568-2.304-5.568-5.977c0-3.888,2.544-6.168,5.76-6.168
		C373.801,43.396,376.057,45.819,376.057,49.372z M366.84,49.492c0,2.544,1.464,4.464,3.528,4.464c2.016,0,3.528-1.896,3.528-4.512
		c0-1.969-0.984-4.465-3.48-4.465S366.84,47.283,366.84,49.492z"/>
	<path d="M378.72,38.235h2.112v17.041h-2.112V38.235z"/>
	<path d="M385.151,43.659l2.545,6.865c0.264,0.768,0.552,1.68,0.744,2.376h0.047c0.217-0.696,0.457-1.584,0.744-2.425l2.305-6.816
		h2.232l-3.168,8.281c-1.513,3.984-2.545,6.024-3.984,7.272c-1.032,0.912-2.064,1.271-2.592,1.368l-0.528-1.776
		c0.528-0.168,1.224-0.504,1.848-1.032c0.576-0.456,1.296-1.272,1.776-2.353c0.096-0.216,0.168-0.384,0.168-0.504
		s-0.049-0.288-0.145-0.552l-4.295-10.705L385.151,43.659L385.151,43.659z"/>
	<path d="M395.688,46.804c0-1.2-0.024-2.185-0.097-3.145h1.849l0.096,1.872h0.072c0.647-1.104,1.728-2.136,3.647-2.136
		c1.584,0,2.784,0.96,3.288,2.328h0.048c0.36-0.648,0.816-1.152,1.296-1.513c0.696-0.527,1.464-0.815,2.568-0.815
		c1.536,0,3.815,1.008,3.815,5.04v6.841h-2.063V48.7c0-2.232-0.816-3.577-2.521-3.577c-1.199,0-2.136,0.889-2.496,1.921
		c-0.097,0.288-0.168,0.672-0.168,1.056v7.177h-2.064v-6.961c0-1.848-0.816-3.192-2.424-3.192c-1.32,0-2.28,1.057-2.616,2.112
		c-0.12,0.312-0.168,0.673-0.168,1.032v7.009h-2.064v-8.473H395.688z"/>
	<path d="M416.879,49.852c0.048,2.856,1.872,4.032,3.984,4.032c1.513,0,2.425-0.264,3.216-0.6l0.36,1.512
		c-0.744,0.337-2.018,0.721-3.864,0.721c-3.576,0-5.712-2.353-5.712-5.856c0-3.505,2.063-6.265,5.448-6.265
		c3.792,0,4.802,3.336,4.802,5.473c0,0.432-0.049,0.768-0.072,0.983H416.879z M423.072,48.34c0.023-1.344-0.553-3.433-2.929-3.433
		c-2.137,0-3.071,1.969-3.239,3.433H423.072z"/>
	<path d="M427.728,47.283c0-1.367-0.023-2.544-0.096-3.624h1.849l0.071,2.28h0.097c0.526-1.56,1.801-2.544,3.217-2.544
		c0.238,0,0.408,0.023,0.6,0.072v1.992c-0.217-0.049-0.432-0.072-0.721-0.072c-1.488,0-2.543,1.128-2.832,2.712
		c-0.048,0.288-0.096,0.624-0.096,0.984v6.192h-2.089V47.283L427.728,47.283z"/>
	<path d="M441.888,55.276l-0.168-1.464h-0.071c-0.648,0.912-1.896,1.728-3.554,1.728c-2.352,0-3.553-1.656-3.553-3.336
		c0-2.809,2.497-4.345,6.985-4.32v-0.24c0-0.96-0.266-2.688-2.641-2.688c-1.08,0-2.209,0.337-3.024,0.864l-0.479-1.392
		c0.96-0.624,2.354-1.032,3.816-1.032c3.552,0,4.417,2.424,4.417,4.752v4.345c0,1.008,0.047,1.992,0.19,2.784L441.888,55.276
		L441.888,55.276z M441.576,49.348c-2.305-0.048-4.92,0.36-4.92,2.616c0,1.368,0.912,2.017,1.992,2.017
		c1.512,0,2.472-0.96,2.808-1.944c0.072-0.216,0.12-0.456,0.12-0.672V49.348z"/>
	<path d="M446.736,53.116c0.623,0.408,1.728,0.84,2.782,0.84c1.537,0,2.257-0.768,2.257-1.728c0-1.009-0.601-1.561-2.16-2.137
		c-2.088-0.744-3.072-1.896-3.072-3.288c0-1.872,1.513-3.408,4.009-3.408c1.177,0,2.208,0.336,2.856,0.72l-0.527,1.536
		c-0.457-0.288-1.297-0.672-2.377-0.672c-1.248,0-1.944,0.72-1.944,1.584c0,0.96,0.696,1.393,2.208,1.969
		c2.018,0.768,3.05,1.775,3.05,3.504c0,2.04-1.584,3.48-4.346,3.48c-1.271,0-2.447-0.312-3.265-0.792L446.736,53.116z"/>
	<path d="M457.703,49.852c0.049,2.856,1.873,4.032,3.984,4.032c1.513,0,2.425-0.264,3.217-0.6l0.358,1.512
		c-0.743,0.337-2.016,0.721-3.862,0.721c-3.576,0-5.713-2.353-5.713-5.856c0-3.505,2.063-6.265,5.447-6.265
		c3.792,0,4.801,3.336,4.801,5.473c0,0.432-0.048,0.768-0.071,0.983H457.703z M463.896,48.34c0.022-1.344-0.554-3.433-2.93-3.433
		c-2.136,0-3.072,1.969-3.24,3.433H463.896z"/>
	<path d="M316.117,69.675h-4.92v-1.776h11.977v1.776h-4.944v14.401h-2.112L316.117,69.675L316.117,69.675z"/>
	<path d="M324.373,78.651c0.048,2.856,1.872,4.032,3.984,4.032c1.512,0,2.424-0.264,3.216-0.6l0.36,1.512
		c-0.744,0.337-2.016,0.721-3.864,0.721c-3.576,0-5.712-2.353-5.712-5.856c0-3.505,2.064-6.265,5.448-6.265
		c3.792,0,4.801,3.336,4.801,5.473c0,0.432-0.048,0.768-0.072,0.983H324.373z M330.565,77.14c0.024-1.344-0.552-3.433-2.928-3.433
		c-2.136,0-3.072,1.969-3.24,3.433H330.565z"/>
	<path d="M335.22,75.604c0-1.2-0.024-2.185-0.096-3.145h1.848l0.096,1.872h0.072c0.648-1.104,1.728-2.136,3.648-2.136
		c1.584,0,2.784,0.96,3.288,2.328h0.048c0.36-0.648,0.816-1.152,1.296-1.513c0.696-0.527,1.464-0.815,2.568-0.815
		c1.536,0,3.816,1.008,3.816,5.04v6.841h-2.064V77.5c0-2.232-0.816-3.577-2.52-3.577c-1.2,0-2.136,0.889-2.497,1.921
		c-0.096,0.288-0.168,0.672-0.168,1.056v7.177h-2.064v-6.961c0-1.848-0.816-3.192-2.424-3.192c-1.32,0-2.28,1.057-2.616,2.112
		c-0.12,0.312-0.168,0.673-0.168,1.032v7.009h-2.064v-8.473H335.22z"/>
	<path d="M355.236,76.252c0-1.488-0.048-2.688-0.096-3.793h1.896l0.096,1.992h0.048c0.864-1.416,2.232-2.256,4.128-2.256
		c2.808,0,4.92,2.376,4.92,5.904c0,4.177-2.544,6.24-5.28,6.24c-1.536,0-2.88-0.672-3.577-1.824h-0.048v6.312h-2.088L355.236,76.252
		L355.236,76.252z M357.325,79.348c0,0.312,0.048,0.601,0.096,0.864c0.384,1.464,1.656,2.472,3.168,2.472
		c2.232,0,3.528-1.823,3.528-4.488c0-2.328-1.224-4.32-3.456-4.32c-1.44,0-2.784,1.032-3.192,2.616
		c-0.072,0.265-0.144,0.576-0.144,0.864V79.348L357.325,79.348z"/>
	<path d="M368.892,67.035h2.112v17.041h-2.112V67.035z"/>
	<path d="M380.987,84.076l-0.168-1.464h-0.071c-0.647,0.912-1.896,1.728-3.552,1.728c-2.354,0-3.553-1.656-3.553-3.336
		c0-2.809,2.497-4.345,6.985-4.32v-0.24c0-0.96-0.264-2.688-2.641-2.688c-1.079,0-2.208,0.336-3.023,0.864l-0.48-1.392
		c0.96-0.624,2.352-1.032,3.816-1.032c3.553,0,4.417,2.424,4.417,4.752v4.345c0,1.008,0.048,1.992,0.192,2.784L380.987,84.076
		L380.987,84.076z M380.676,78.147c-2.304-0.048-4.92,0.36-4.92,2.616c0,1.368,0.912,2.017,1.992,2.017
		c1.512,0,2.472-0.96,2.808-1.944c0.072-0.216,0.12-0.456,0.12-0.672V78.147z"/>
	<path d="M388.571,69.123v3.336h3.025v1.608h-3.025v6.265c0,1.44,0.408,2.256,1.585,2.256c0.552,0,0.96-0.072,1.224-0.144
		l0.096,1.584c-0.408,0.168-1.056,0.288-1.871,0.288c-0.984,0-1.776-0.312-2.28-0.889c-0.601-0.624-0.816-1.655-0.816-3.023v-6.337
		h-1.8v-1.608h1.8v-2.784L388.571,69.123z"/>
	<path d="M395.004,78.651c0.048,2.856,1.872,4.032,3.984,4.032c1.512,0,2.424-0.264,3.216-0.6l0.36,1.512
		c-0.744,0.337-2.017,0.721-3.864,0.721c-3.576,0-5.713-2.353-5.713-5.856c0-3.505,2.064-6.265,5.448-6.265
		c3.792,0,4.802,3.336,4.802,5.473c0,0.432-0.048,0.768-0.072,0.983H395.004z M401.196,77.14c0.023-1.344-0.553-3.433-2.929-3.433
		c-2.136,0-3.071,1.969-3.239,3.433H401.196z"/>
	<path d="M411.012,68.115c1.272-0.192,2.784-0.337,4.441-0.337c3,0,5.136,0.696,6.552,2.017c1.44,1.32,2.28,3.192,2.28,5.809
		c0,2.641-0.816,4.801-2.328,6.288c-1.512,1.513-4.008,2.328-7.152,2.328c-1.487,0-2.735-0.071-3.792-0.191L411.012,68.115
		L411.012,68.115z M413.1,82.42c0.528,0.096,1.297,0.12,2.113,0.12c4.464,0,6.889-2.496,6.889-6.864
		c0.023-3.816-2.137-6.241-6.553-6.241c-1.081,0-1.896,0.097-2.449,0.217V82.42z"/>
	<path d="M426.996,84.076V67.898h2.28l5.185,8.185c1.199,1.896,2.136,3.601,2.904,5.257l0.048-0.023
		c-0.192-2.161-0.24-4.129-0.24-6.649v-6.769h1.968v16.178h-2.11l-5.138-8.209c-1.129-1.8-2.209-3.648-3.023-5.4l-0.071,0.024
		c0.119,2.04,0.168,3.984,0.168,6.672v6.913L426.996,84.076L426.996,84.076z"/>
	<path d="M445.404,78.987l-1.681,5.089h-2.159l5.495-16.178h2.521l5.521,16.178h-2.231l-1.729-5.089H445.404z M450.708,77.355
		l-1.584-4.656c-0.36-1.056-0.601-2.017-0.84-2.952h-0.049c-0.24,0.96-0.505,1.944-0.816,2.928l-1.584,4.681L450.708,77.355
		L450.708,77.355z"/>
	<path d="M352.344,96.891c1.008-0.168,2.328-0.312,4.008-0.312c2.064,0,3.576,0.48,4.537,1.345c0.888,0.768,1.416,1.944,1.416,3.384
		c0,1.465-0.432,2.616-1.248,3.457c-1.104,1.176-2.904,1.775-4.945,1.775c-0.624,0-1.2-0.023-1.68-0.144v6.48h-2.088V96.891
		L352.344,96.891z M354.432,104.691c0.456,0.12,1.032,0.168,1.729,0.168c2.52,0,4.056-1.225,4.056-3.456
		c0-2.137-1.512-3.169-3.816-3.169c-0.912,0-1.608,0.072-1.968,0.168L354.432,104.691L354.432,104.691z"/>
	<path d="M364.656,104.883c0-1.367-0.024-2.544-0.096-3.624h1.848l0.072,2.28h0.096c0.528-1.56,1.8-2.544,3.216-2.544
		c0.24,0,0.408,0.023,0.6,0.072v1.992c-0.216-0.049-0.432-0.072-0.72-0.072c-1.488,0-2.544,1.128-2.832,2.712
		c-0.048,0.288-0.096,0.624-0.096,0.984v6.192h-2.088L364.656,104.883L364.656,104.883z"/>
	<path d="M374.952,97.995c0.024,0.72-0.504,1.296-1.344,1.296c-0.744,0-1.272-0.576-1.272-1.296c0-0.744,0.552-1.32,1.32-1.32
		C374.448,96.675,374.952,97.251,374.952,97.995z M372.6,112.876v-11.617h2.112v11.617H372.6z"/>
	<path d="M378.216,104.403c0-1.2-0.023-2.185-0.096-3.145h1.848l0.096,1.872h0.072c0.648-1.104,1.729-2.136,3.648-2.136
		c1.584,0,2.783,0.96,3.287,2.328h0.049c0.359-0.648,0.816-1.152,1.296-1.513c0.696-0.527,1.464-0.815,2.567-0.815
		c1.537,0,3.816,1.008,3.816,5.04v6.841h-2.064V106.3c0-2.232-0.815-3.577-2.52-3.577c-1.199,0-2.136,0.889-2.497,1.921
		c-0.096,0.288-0.168,0.672-0.168,1.056v7.177h-2.063v-6.961c0-1.848-0.816-3.192-2.424-3.192c-1.32,0-2.28,1.057-2.617,2.112
		c-0.119,0.312-0.168,0.673-0.168,1.032v7.009h-2.063L378.216,104.403L378.216,104.403z"/>
	<path d="M399.408,107.451c0.048,2.856,1.872,4.032,3.983,4.032c1.513,0,2.425-0.264,3.217-0.6l0.359,1.512
		c-0.744,0.337-2.016,0.721-3.864,0.721c-3.575,0-5.712-2.353-5.712-5.856c0-3.505,2.064-6.265,5.448-6.265
		c3.792,0,4.801,3.336,4.801,5.473c0,0.432-0.048,0.768-0.071,0.983H399.408z M405.6,105.939c0.024-1.344-0.552-3.433-2.928-3.433
		c-2.136,0-3.072,1.969-3.24,3.433H405.6z"/>
	<path d="M410.256,104.883c0-1.367-0.023-2.544-0.096-3.624h1.848l0.072,2.28h0.096c0.528-1.56,1.8-2.544,3.216-2.544
		c0.24,0,0.408,0.023,0.602,0.072v1.992c-0.216-0.049-0.434-0.072-0.72-0.072c-1.489,0-2.545,1.128-2.833,2.712
		c-0.049,0.288-0.097,0.624-0.097,0.984v6.192h-2.088V104.883L410.256,104.883z"/>
</g>
<g>
	<path fill="#3FA9F5" d="M74.174,140.577v14.041c0,1.032,0.024,2.208,0.096,3h-1.896l-0.096-2.016H72.23
		c-0.648,1.296-2.064,2.28-3.96,2.28c-2.808,0-4.968-2.376-4.968-5.905c-0.024-3.864,2.376-6.24,5.208-6.24
		c1.776,0,2.976,0.84,3.504,1.776h0.048v-6.937L74.174,140.577L74.174,140.577z M72.062,150.73c0-0.264-0.024-0.624-0.096-0.888
		c-0.312-1.344-1.464-2.448-3.048-2.448c-2.184,0-3.48,1.92-3.48,4.489c0,2.352,1.152,4.296,3.432,4.296
		c1.416,0,2.712-0.936,3.096-2.521c0.072-0.288,0.096-0.576,0.096-0.912V150.73z"/>
	<path fill="#3FA9F5" d="M87.71,140.577v14.041c0,1.032,0.024,2.208,0.096,3H85.91l-0.096-2.016h-0.048
		c-0.648,1.296-2.064,2.28-3.96,2.28c-2.808,0-4.968-2.376-4.968-5.905c-0.024-3.864,2.376-6.24,5.208-6.24
		c1.776,0,2.976,0.84,3.504,1.776h0.048v-6.937L87.71,140.577L87.71,140.577z M85.598,150.73c0-0.264-0.024-0.624-0.096-0.888
		c-0.312-1.344-1.464-2.448-3.048-2.448c-2.184,0-3.48,1.92-3.48,4.489c0,2.352,1.152,4.296,3.432,4.296
		c1.416,0,2.712-0.936,3.096-2.521c0.072-0.288,0.096-0.576,0.096-0.912V150.73z"/>
	<path fill="#3FA9F5" d="M93.901,152.53l-1.68,5.088h-2.16l5.497-16.177h2.52l5.521,16.177h-2.232l-1.728-5.088H93.901z
		 M99.206,150.898l-1.584-4.656c-0.36-1.056-0.6-2.016-0.84-2.952h-0.048c-0.24,0.96-0.504,1.944-0.816,2.928l-1.584,4.68H99.206
		L99.206,150.898z"/>
	<path fill="#3FA9F5" d="M107.198,143.217h-4.92v-1.776h11.977v1.776h-4.944v14.401h-2.112L107.198,143.217L107.198,143.217z"/>
	<path fill="#3FA9F5" d="M116.053,141.633c1.008-0.168,2.328-0.312,4.008-0.312c2.064,0,3.576,0.48,4.537,1.344
		c0.888,0.768,1.416,1.944,1.416,3.384c0,1.464-0.432,2.616-1.248,3.456c-1.104,1.176-2.904,1.776-4.945,1.776
		c-0.624,0-1.2-0.024-1.68-0.144v6.48h-2.088V141.633z M118.141,149.434c0.456,0.12,1.032,0.168,1.729,0.168
		c2.52,0,4.056-1.224,4.056-3.457c0-2.136-1.512-3.168-3.816-3.168c-0.912,0-1.608,0.072-1.968,0.168L118.141,149.434
		L118.141,149.434z"/>
</g>
<g>
	<path fill="#7AC943" d="M268.17,140.578v14.041c0,1.032,0.024,2.208,0.096,3h-1.896l-0.096-2.016h-0.048
		c-0.648,1.296-2.064,2.28-3.96,2.28c-2.808,0-4.968-2.376-4.968-5.905c-0.024-3.864,2.376-6.24,5.208-6.24
		c1.776,0,2.976,0.84,3.504,1.776h0.048v-6.937L268.17,140.578L268.17,140.578z M266.058,150.73c0-0.264-0.024-0.624-0.096-0.888
		c-0.312-1.344-1.464-2.448-3.048-2.448c-2.184,0-3.48,1.92-3.48,4.489c0,2.352,1.152,4.296,3.432,4.296
		c1.416,0,2.712-0.936,3.096-2.521c0.072-0.288,0.096-0.576,0.096-0.912V150.73z"/>
	<path fill="#7AC943" d="M281.706,140.578v14.041c0,1.032,0.024,2.208,0.096,3h-1.896l-0.096-2.016h-0.048
		c-0.648,1.296-2.064,2.28-3.96,2.28c-2.808,0-4.968-2.376-4.968-5.905c-0.024-3.864,2.376-6.24,5.208-6.24
		c1.776,0,2.976,0.84,3.504,1.776h0.048v-6.937L281.706,140.578L281.706,140.578z M279.594,150.73c0-0.264-0.024-0.624-0.096-0.888
		c-0.312-1.344-1.464-2.448-3.048-2.448c-2.184,0-3.48,1.92-3.48,4.489c0,2.352,1.152,4.296,3.432,4.296
		c1.416,0,2.712-0.936,3.096-2.521c0.072-0.288,0.096-0.576,0.096-0.912V150.73z"/>
	<path fill="#7AC943" d="M296.585,157.091c-0.768,0.384-2.304,0.768-4.272,0.768c-4.561,0-7.993-2.88-7.993-8.185
		c0-5.064,3.432-8.497,8.449-8.497c2.016,0,3.288,0.432,3.84,0.72l-0.504,1.704c-0.792-0.384-1.92-0.672-3.264-0.672
		c-3.792,0-6.312,2.424-6.312,6.673c0,3.96,2.28,6.504,6.216,6.504c1.272,0,2.568-0.264,3.409-0.672L296.585,157.091z"/>
	<path fill="#7AC943" d="M302.945,143.218h-4.92v-1.776h11.977v1.776h-4.944v14.401h-2.112L302.945,143.218L302.945,143.218z"/>
	<path fill="#7AC943" d="M311.8,141.634c1.008-0.168,2.328-0.312,4.008-0.312c2.064,0,3.576,0.479,4.536,1.344
		c0.888,0.768,1.417,1.944,1.417,3.384c0,1.464-0.432,2.616-1.248,3.456c-1.104,1.176-2.904,1.776-4.945,1.776
		c-0.624,0-1.2-0.024-1.68-0.144v6.48H311.8V141.634z M313.888,149.435c0.456,0.12,1.032,0.168,1.729,0.168
		c2.52,0,4.056-1.224,4.056-3.457c0-2.136-1.512-3.168-3.816-3.168c-0.912,0-1.608,0.072-1.968,0.168L313.888,149.435
		L313.888,149.435z"/>
</g>
<g>
	<path fill="#FF931E" d="M457.458,140.577v14.041c0,1.032,0.023,2.208,0.096,3h-1.896l-0.096-2.016h-0.05
		c-0.646,1.296-2.062,2.28-3.96,2.28c-2.808,0-4.968-2.376-4.968-5.905c-0.024-3.864,2.375-6.24,5.208-6.24
		c1.776,0,2.977,0.84,3.505,1.776h0.047v-6.937L457.458,140.577L457.458,140.577z M455.345,150.73c0-0.264-0.022-0.624-0.096-0.888
		c-0.312-1.344-1.464-2.448-3.049-2.448c-2.185,0-3.479,1.92-3.479,4.489c0,2.352,1.151,4.296,3.434,4.296
		c1.416,0,2.712-0.936,3.096-2.521c0.072-0.288,0.096-0.576,0.096-0.912L455.345,150.73L455.345,150.73z"/>
	<path fill="#FF931E" d="M470.994,140.577v14.041c0,1.032,0.023,2.208,0.096,3h-1.896l-0.098-2.016h-0.047
		c-0.647,1.296-2.063,2.28-3.961,2.28c-2.809,0-4.969-2.376-4.969-5.905c-0.023-3.864,2.377-6.24,5.209-6.24
		c1.774,0,2.977,0.84,3.504,1.776h0.049v-6.937L470.994,140.577L470.994,140.577z M468.882,150.73c0-0.264-0.023-0.624-0.097-0.888
		c-0.312-1.344-1.464-2.448-3.048-2.448c-2.186,0-3.48,1.92-3.48,4.489c0,2.352,1.152,4.296,3.433,4.296
		c1.416,0,2.713-0.936,3.097-2.521c0.072-0.288,0.097-0.576,0.097-0.912L468.882,150.73L468.882,150.73z"/>
	<path fill="#FF931E" d="M486.882,156.898c-0.937,0.336-2.785,0.888-4.969,0.888c-2.448,0-4.465-0.624-6.049-2.136
		c-1.394-1.344-2.256-3.504-2.256-6.024c0.022-4.824,3.336-8.353,8.761-8.353c1.872,0,3.336,0.408,4.032,0.744l-0.505,1.705
		c-0.863-0.384-1.943-0.696-3.575-0.696c-3.938,0-6.505,2.448-6.505,6.504c0,4.104,2.472,6.529,6.24,6.529
		c1.367,0,2.305-0.192,2.783-0.432v-4.824h-3.288v-1.68h5.329L486.882,156.898L486.882,156.898z"/>
	<path fill="#FF931E" d="M493.145,143.217h-4.921v-1.776h11.979v1.776h-4.944v14.401h-2.111v-14.401H493.145z"/>
	<path fill="#FF931E" d="M502,141.633c1.008-0.168,2.328-0.312,4.009-0.312c2.063,0,3.576,0.48,4.535,1.344
		c0.889,0.768,1.417,1.944,1.417,3.384c0,1.464-0.433,2.616-1.248,3.456c-1.104,1.176-2.904,1.776-4.943,1.776
		c-0.625,0-1.2-0.024-1.682-0.144v6.48H502V141.633z M504.088,149.434c0.456,0.12,1.032,0.168,1.729,0.168
		c2.521,0,4.056-1.224,4.056-3.457c0-2.136-1.512-3.168-3.816-3.168c-0.912,0-1.606,0.072-1.968,0.168L504.088,149.434
		L504.088,149.434z"/>
</g>
<g>
	<path fill="#FF1D25" d="M645.328,141.218v14.041c0,1.032,0.022,2.208,0.096,3h-1.896l-0.097-2.016h-0.048
		c-0.646,1.296-2.062,2.28-3.96,2.28c-2.809,0-4.969-2.376-4.969-5.905c-0.023-3.864,2.376-6.24,5.209-6.24
		c1.775,0,2.976,0.84,3.504,1.776h0.048v-6.937L645.328,141.218L645.328,141.218z M643.215,151.371c0-0.264-0.023-0.624-0.097-0.888
		c-0.312-1.344-1.463-2.448-3.048-2.448c-2.186,0-3.479,1.92-3.479,4.489c0,2.352,1.151,4.296,3.433,4.296
		c1.416,0,2.713-0.936,3.096-2.521c0.072-0.288,0.097-0.576,0.097-0.912L643.215,151.371L643.215,151.371z"/>
	<path fill="#FF1D25" d="M658.864,141.218v14.041c0,1.032,0.023,2.208,0.096,3h-1.896l-0.098-2.016h-0.048
		c-0.647,1.296-2.063,2.28-3.961,2.28c-2.808,0-4.968-2.376-4.968-5.905c-0.024-3.864,2.376-6.24,5.208-6.24
		c1.775,0,2.977,0.84,3.505,1.776h0.048v-6.937L658.864,141.218L658.864,141.218z M656.751,151.371c0-0.264-0.023-0.624-0.096-0.888
		c-0.312-1.344-1.466-2.448-3.05-2.448c-2.184,0-3.479,1.92-3.479,4.489c0,2.352,1.152,4.296,3.433,4.296
		c1.416,0,2.712-0.936,3.098-2.521c0.071-0.288,0.096-0.576,0.096-0.912L656.751,151.371L656.751,151.371z"/>
	<path fill="#FF1D25" d="M665.511,143.858h-4.921v-1.776h11.979v1.776h-4.945v14.401h-2.111L665.511,143.858L665.511,143.858z"/>
	<path fill="#FF1D25" d="M678.351,143.858h-4.921v-1.776h11.979v1.776h-4.945v14.401h-2.111L678.351,143.858L678.351,143.858z"/>
	<path fill="#FF1D25" d="M687.207,142.274c1.008-0.168,2.328-0.312,4.008-0.312c2.064,0,3.576,0.48,4.536,1.344
		c0.888,0.768,1.417,1.944,1.417,3.384c0,1.464-0.433,2.616-1.248,3.456c-1.104,1.176-2.904,1.776-4.945,1.776
		c-0.624,0-1.198-0.024-1.68-0.144v6.48h-2.088V142.274z M689.294,150.075c0.455,0.12,1.031,0.168,1.729,0.168
		c2.52,0,4.056-1.224,4.056-3.457c0-2.136-1.513-3.168-3.816-3.168c-0.911,0-1.607,0.072-1.968,0.168L689.294,150.075
		L689.294,150.075z"/>
</g>
<g>
	<g>
		<rect x="15.979" y="364.489" fill="none" width="158.169" height="28.205"/>
		<path fill="#3FA9F5" d="M20.42,376.44l-1.68,5.088h-2.16l5.497-16.178h2.52l5.521,16.178h-2.232l-1.728-5.088H20.42z
			 M25.724,374.807l-1.584-4.656c-0.36-1.057-0.6-2.018-0.84-2.953h-0.048c-0.24,0.961-0.504,1.943-0.816,2.93l-1.584,4.68H25.724
			L25.724,374.807z"/>
		<path fill="#7AC943" d="M43.437,381c-0.768,0.383-2.304,0.768-4.272,0.768c-4.561,0-7.993-2.881-7.993-8.186
			c0-5.064,3.432-8.496,8.449-8.496c2.016,0,3.288,0.432,3.84,0.721l-0.504,1.703c-0.792-0.385-1.92-0.672-3.264-0.672
			c-3.792,0-6.312,2.424-6.312,6.672c0,3.961,2.28,6.506,6.216,6.506c1.272,0,2.568-0.266,3.409-0.672L43.437,381z"/>
		<path fill="#FF1D25" d="M49.796,367.125h-4.92v-1.775h11.977v1.775h-4.944v14.402h-2.112L49.796,367.125L49.796,367.125z"/>
		<path fill="#7AC943" d="M69.308,381c-0.768,0.383-2.304,0.768-4.272,0.768c-4.561,0-7.993-2.881-7.993-8.186
			c0-5.064,3.432-8.496,8.449-8.496c2.016,0,3.288,0.432,3.84,0.721l-0.504,1.703c-0.792-0.385-1.92-0.672-3.264-0.672
			c-3.792,0-6.312,2.424-6.312,6.672c0,3.961,2.28,6.506,6.216,6.506c1.272,0,2.568-0.266,3.409-0.672L69.308,381z"/>
		<path fill="#3FA9F5" d="M74.636,376.44l-1.68,5.088h-2.16l5.497-16.178h2.52l5.521,16.178H82.1l-1.728-5.088H74.636z
			 M79.94,374.807l-1.584-4.656c-0.36-1.057-0.6-2.018-0.84-2.953h-0.048c-0.24,0.961-0.504,1.943-0.816,2.93l-1.584,4.68H79.94
			L79.94,374.807z"/>
		<path fill="#FF931E" d="M98.66,380.807c-0.936,0.336-2.784,0.889-4.968,0.889c-2.448,0-4.464-0.625-6.049-2.137
			c-1.392-1.344-2.256-3.504-2.256-6.023c0.024-4.824,3.336-8.354,8.761-8.354c1.872,0,3.336,0.408,4.032,0.744l-0.504,1.703
			c-0.864-0.383-1.944-0.695-3.577-0.695c-3.936,0-6.504,2.447-6.504,6.504c0,4.105,2.472,6.529,6.241,6.529
			c1.368,0,2.304-0.191,2.784-0.432v-4.824h-3.289v-1.682h5.329V380.807z"/>
		<path fill="#3FA9F5" d="M104.467,376.44l-1.68,5.088h-2.16l5.497-16.178h2.52l5.521,16.178h-2.232l-1.729-5.088H104.467z
			 M109.771,374.807l-1.584-4.656c-0.36-1.057-0.6-2.018-0.84-2.953h-0.048c-0.24,0.961-0.504,1.943-0.816,2.93l-1.584,4.68H109.771
			L109.771,374.807z"/>
		<path fill="#FF1D25" d="M117.764,367.125h-4.92v-1.775h11.977v1.775h-4.944v14.402h-2.112L117.764,367.125L117.764,367.125z"/>
		<path fill="#FF931E" d="M138.284,380.807c-0.936,0.336-2.784,0.889-4.968,0.889c-2.448,0-4.464-0.625-6.049-2.137
			c-1.392-1.344-2.256-3.504-2.256-6.023c0.024-4.824,3.336-8.354,8.761-8.354c1.872,0,3.336,0.408,4.032,0.744l-0.504,1.703
			c-0.864-0.383-1.944-0.695-3.577-0.695c-3.936,0-6.504,2.447-6.504,6.504c0,4.105,2.472,6.529,6.241,6.529
			c1.368,0,2.304-0.191,2.784-0.432v-4.824h-3.289v-1.682h5.329V380.807z"/>
		<path fill="#7AC943" d="M152.78,381c-0.768,0.383-2.304,0.768-4.272,0.768c-4.561,0-7.993-2.881-7.993-8.186
			c0-5.064,3.432-8.496,8.449-8.496c2.016,0,3.288,0.432,3.84,0.721l-0.504,1.703c-0.792-0.385-1.92-0.672-3.264-0.672
			c-3.792,0-6.312,2.424-6.312,6.672c0,3.961,2.28,6.506,6.216,6.506c1.272,0,2.568-0.266,3.409-0.672L152.78,381z"/>
		<path fill="#FF1D25" d="M159.139,367.125h-4.92v-1.775h11.977v1.775h-4.944v14.402h-2.112L159.139,367.125L159.139,367.125z"/>
	</g>
	<g>
		<rect x="16.266" y="392.694" fill="none" width="158.169" height="28.205"/>
		<path fill="#3FA9F5" d="M20.707,404.645l-1.68,5.088h-2.16l5.497-16.178h2.52l5.521,16.178h-2.232l-1.728-5.088H20.707z
			 M26.011,403.012l-1.584-4.656c-0.36-1.057-0.6-2.016-0.84-2.951h-0.048c-0.24,0.959-0.504,1.943-0.816,2.928l-1.584,4.68H26.011
			L26.011,403.012z"/>
		<path fill="#7AC943" d="M43.723,409.206c-0.768,0.385-2.304,0.768-4.272,0.768c-4.561,0-7.993-2.879-7.993-8.184
			c0-5.064,3.432-8.498,8.449-8.498c2.016,0,3.288,0.434,3.84,0.721l-0.504,1.705c-0.792-0.385-1.92-0.674-3.264-0.674
			c-3.792,0-6.312,2.426-6.312,6.674c0,3.961,2.28,6.504,6.216,6.504c1.272,0,2.568-0.264,3.409-0.672L43.723,409.206z"/>
		<path fill="#FF1D25" d="M50.083,395.333h-4.92v-1.775H57.14v1.775h-4.944v14.4h-2.112L50.083,395.333L50.083,395.333z"/>
		<path fill="#7AC943" d="M69.595,409.206c-0.768,0.385-2.304,0.768-4.272,0.768c-4.561,0-7.993-2.879-7.993-8.184
			c0-5.064,3.432-8.498,8.449-8.498c2.016,0,3.288,0.434,3.84,0.721l-0.504,1.705c-0.792-0.385-1.92-0.674-3.264-0.674
			c-3.792,0-6.312,2.426-6.312,6.674c0,3.961,2.28,6.504,6.216,6.504c1.272,0,2.568-0.264,3.409-0.672L69.595,409.206z"/>
		<path fill="#3FA9F5" d="M74.922,404.645l-1.68,5.088h-2.16l5.497-16.178h2.52l5.521,16.178h-2.232l-1.728-5.088H74.922z
			 M80.227,403.012l-1.584-4.656c-0.36-1.057-0.6-2.016-0.84-2.951h-0.048c-0.24,0.959-0.504,1.943-0.816,2.928l-1.584,4.68H80.227
			L80.227,403.012z"/>
		<path fill="#FF931E" d="M98.947,409.012c-0.936,0.338-2.784,0.889-4.968,0.889c-2.448,0-4.464-0.623-6.049-2.137
			c-1.392-1.344-2.256-3.504-2.256-6.023c0.024-4.824,3.336-8.354,8.761-8.354c1.872,0,3.336,0.408,4.032,0.744l-0.504,1.705
			c-0.864-0.385-1.944-0.697-3.577-0.697c-3.936,0-6.504,2.449-6.504,6.506c0,4.104,2.472,6.527,6.241,6.527
			c1.368,0,2.304-0.191,2.784-0.432v-4.824h-3.289v-1.68h5.329V409.012z"/>
		<path fill="#3FA9F5" d="M104.754,404.645l-1.68,5.088h-2.16l5.497-16.178h2.52l5.521,16.178h-2.232l-1.729-5.088H104.754z
			 M110.058,403.012l-1.584-4.656c-0.36-1.057-0.6-2.016-0.84-2.951h-0.048c-0.24,0.959-0.504,1.943-0.816,2.928l-1.584,4.68
			H110.058L110.058,403.012z"/>
	</g>
	<g>
		<rect x="15.754" y="420.899" fill="none" width="158.169" height="28.203"/>
		<path fill="#3FA9F5" d="M20.194,432.85l-1.68,5.088h-2.16l5.497-16.178h2.52l5.521,16.178H27.66l-1.729-5.088H20.194z
			 M25.499,431.217l-1.584-4.656c-0.36-1.057-0.6-2.016-0.84-2.951h-0.048c-0.24,0.959-0.504,1.943-0.816,2.928l-1.584,4.68H25.499
			L25.499,431.217z"/>
		<path fill="#7AC943" d="M43.211,437.411c-0.768,0.383-2.304,0.768-4.272,0.768c-4.561,0-7.993-2.881-7.993-8.186
			c0-5.064,3.432-8.496,8.449-8.496c2.016,0,3.288,0.432,3.84,0.721l-0.504,1.703c-0.792-0.383-1.92-0.672-3.264-0.672
			c-3.792,0-6.312,2.424-6.312,6.674c0,3.959,2.28,6.504,6.216,6.504c1.272,0,2.568-0.264,3.409-0.672L43.211,437.411z"/>
		<path fill="#FF1D25" d="M49.57,423.538h-4.92v-1.777h11.977v1.777h-4.944v14.4H49.57V423.538z"/>
		<path fill="#7AC943" d="M69.082,437.411c-0.768,0.383-2.304,0.768-4.272,0.768c-4.561,0-7.993-2.881-7.993-8.186
			c0-5.064,3.432-8.496,8.449-8.496c2.016,0,3.288,0.432,3.84,0.721l-0.504,1.703c-0.792-0.383-1.92-0.672-3.264-0.672
			c-3.792,0-6.312,2.424-6.312,6.674c0,3.959,2.28,6.504,6.216,6.504c1.272,0,2.568-0.264,3.409-0.672L69.082,437.411z"/>
		<path fill="#3FA9F5" d="M74.41,432.85l-1.68,5.088h-2.16l5.497-16.178h2.52l5.521,16.178h-2.232l-1.728-5.088H74.41z
			 M79.714,431.217l-1.584-4.656c-0.36-1.057-0.6-2.016-0.84-2.951h-0.048c-0.24,0.959-0.504,1.943-0.816,2.928l-1.584,4.68H79.714
			L79.714,431.217z"/>
	</g>
	<g>
		<rect x="15.693" y="449.102" fill="none" width="158.17" height="28.205"/>
		<path fill="#3FA9F5" d="M20.134,461.055l-1.68,5.088h-2.16l5.497-16.178h2.52l5.521,16.178H27.6l-1.728-5.088H20.134z
			 M25.438,459.422l-1.584-4.656c-0.36-1.057-0.6-2.016-0.84-2.951h-0.048c-0.24,0.959-0.504,1.943-0.816,2.928l-1.584,4.68H25.438
			L25.438,459.422z"/>
	</g>
</g>
<g>
	<g>
		<rect x="207.723" y="362.667" fill="none" width="158.092" height="28.205"/>
		<path fill="#3FA9F5" d="M212.164,374.62l-1.68,5.088h-2.16l5.497-16.178h2.52l5.521,16.178h-2.232l-1.728-5.088H212.164z
			 M217.468,372.987l-1.584-4.656c-0.36-1.057-0.6-2.016-0.84-2.953h-0.048c-0.24,0.961-0.504,1.945-0.816,2.93l-1.584,4.682h4.872
			V372.987z"/>
		<path fill="#7AC943" d="M235.18,379.178c-0.768,0.385-2.304,0.77-4.272,0.77c-4.561,0-7.993-2.881-7.993-8.186
			c0-5.064,3.432-8.496,8.449-8.496c2.016,0,3.288,0.432,3.84,0.721l-0.504,1.703c-0.792-0.385-1.92-0.672-3.264-0.672
			c-3.792,0-6.312,2.424-6.312,6.672c0,3.961,2.28,6.506,6.216,6.506c1.272,0,2.568-0.266,3.409-0.672L235.18,379.178z"/>
		<path fill="#FF1D25" d="M241.54,365.305h-4.92v-1.775h11.977v1.775h-4.944v14.402h-2.112L241.54,365.305L241.54,365.305z"/>
		<path fill="#7AC943" d="M261.052,379.178c-0.768,0.385-2.304,0.77-4.272,0.77c-4.561,0-7.993-2.881-7.993-8.186
			c0-5.064,3.432-8.496,8.449-8.496c2.016,0,3.288,0.432,3.84,0.721l-0.504,1.703c-0.792-0.385-1.92-0.672-3.264-0.672
			c-3.792,0-6.312,2.424-6.312,6.672c0,3.961,2.28,6.506,6.216,6.506c1.272,0,2.568-0.266,3.409-0.672L261.052,379.178z"/>
		<path fill="#3FA9F5" d="M266.379,374.62l-1.68,5.088h-2.16l5.497-16.178h2.52l5.521,16.178h-2.232l-1.728-5.088H266.379z
			 M271.684,372.987l-1.584-4.656c-0.36-1.057-0.6-2.016-0.84-2.953h-0.048c-0.24,0.961-0.504,1.945-0.816,2.93l-1.584,4.682h4.872
			V372.987z"/>
		<path fill="#FF931E" d="M290.404,378.987c-0.936,0.336-2.784,0.889-4.968,0.889c-2.448,0-4.464-0.625-6.049-2.137
			c-1.392-1.344-2.256-3.504-2.256-6.023c0.024-4.824,3.336-8.354,8.761-8.354c1.872,0,3.336,0.408,4.032,0.744l-0.504,1.703
			c-0.864-0.383-1.944-0.695-3.577-0.695c-3.936,0-6.504,2.449-6.504,6.504c0,4.105,2.472,6.529,6.241,6.529
			c1.368,0,2.304-0.191,2.784-0.432v-4.824h-3.289v-1.682h5.329V378.987z"/>
		<path fill="#3FA9F5" d="M296.211,374.62l-1.68,5.088h-2.16l5.497-16.178h2.52l5.521,16.178h-2.232l-1.729-5.088H296.211z
			 M301.515,372.987l-1.584-4.656c-0.36-1.057-0.6-2.016-0.84-2.953h-0.048c-0.24,0.961-0.504,1.945-0.816,2.93l-1.584,4.682h4.872
			V372.987z"/>
		<path fill="#FF1D25" d="M309.507,365.305h-4.92v-1.775h11.977v1.775h-4.944v14.402h-2.112L309.507,365.305L309.507,365.305z"/>
		<path fill="#FF931E" d="M330.028,378.987c-0.936,0.336-2.784,0.889-4.968,0.889c-2.448,0-4.464-0.625-6.049-2.137
			c-1.392-1.344-2.256-3.504-2.256-6.023c0.024-4.824,3.336-8.354,8.761-8.354c1.872,0,3.336,0.408,4.032,0.744l-0.504,1.703
			c-0.864-0.383-1.944-0.695-3.577-0.695c-3.936,0-6.504,2.449-6.504,6.504c0,4.105,2.472,6.529,6.241,6.529
			c1.368,0,2.304-0.191,2.784-0.432v-4.824h-3.289v-1.682h5.329V378.987z"/>
		<path fill="#7AC943" d="M344.523,379.178c-0.768,0.385-2.304,0.77-4.272,0.77c-4.561,0-7.993-2.881-7.993-8.186
			c0-5.064,3.432-8.496,8.449-8.496c2.016,0,3.288,0.432,3.84,0.721l-0.504,1.703c-0.792-0.385-1.92-0.672-3.264-0.672
			c-3.792,0-6.312,2.424-6.312,6.672c0,3.961,2.28,6.506,6.216,6.506c1.272,0,2.568-0.266,3.409-0.672L344.523,379.178z"/>
		<path fill="#FF1D25" d="M350.883,365.305h-4.92v-1.775h11.977v1.775h-4.944v14.402h-2.112L350.883,365.305L350.883,365.305z"/>
	</g>
	<g>
		<rect x="208.01" y="390.874" fill="none" width="158.092" height="28.205"/>
		<path fill="#3FA9F5" d="M212.45,402.825l-1.68,5.088h-2.16l5.497-16.176h2.52l5.521,16.176h-2.232l-1.728-5.088H212.45z
			 M217.754,401.192l-1.584-4.656c-0.36-1.055-0.6-2.016-0.84-2.951h-0.048c-0.24,0.959-0.504,1.943-0.816,2.928l-1.584,4.682h4.872
			V401.192z"/>
		<path fill="#7AC943" d="M235.467,407.385c-0.768,0.383-2.304,0.768-4.272,0.768c-4.561,0-7.993-2.879-7.993-8.186
			c0-5.062,3.432-8.496,8.449-8.496c2.016,0,3.288,0.434,3.84,0.721l-0.504,1.705c-0.792-0.385-1.92-0.674-3.264-0.674
			c-3.792,0-6.312,2.426-6.312,6.674c0,3.961,2.28,6.504,6.216,6.504c1.272,0,2.568-0.264,3.409-0.672L235.467,407.385z"/>
		<path fill="#FF1D25" d="M241.826,393.512h-4.92v-1.775h11.977v1.775h-4.944v14.4h-2.112L241.826,393.512L241.826,393.512z"/>
		<path fill="#7AC943" d="M261.338,407.385c-0.768,0.383-2.304,0.768-4.272,0.768c-4.561,0-7.993-2.879-7.993-8.186
			c0-5.062,3.432-8.496,8.449-8.496c2.016,0,3.288,0.434,3.84,0.721l-0.504,1.705c-0.792-0.385-1.92-0.674-3.264-0.674
			c-3.792,0-6.312,2.426-6.312,6.674c0,3.961,2.28,6.504,6.216,6.504c1.272,0,2.568-0.264,3.409-0.672L261.338,407.385z"/>
		<path fill="#3FA9F5" d="M266.666,402.825l-1.68,5.088h-2.16l5.497-16.176h2.52l5.521,16.176h-2.232l-1.728-5.088H266.666z
			 M271.97,401.192l-1.584-4.656c-0.36-1.055-0.6-2.016-0.84-2.951h-0.048c-0.24,0.959-0.504,1.943-0.816,2.928l-1.584,4.682h4.872
			V401.192z"/>
		<path fill="#FF931E" d="M290.69,407.194c-0.936,0.336-2.784,0.887-4.968,0.887c-2.448,0-4.464-0.623-6.049-2.135
			c-1.392-1.346-2.256-3.506-2.256-6.025c0.024-4.824,3.336-8.352,8.761-8.352c1.872,0,3.336,0.406,4.032,0.742l-0.504,1.705
			c-0.864-0.385-1.944-0.695-3.577-0.695c-3.936,0-6.504,2.447-6.504,6.504c0,4.104,2.472,6.529,6.241,6.529
			c1.368,0,2.304-0.193,2.784-0.434v-4.824h-3.289v-1.68h5.329V407.194z"/>
		<path fill="#3FA9F5" d="M296.498,402.825l-1.68,5.088h-2.16l5.497-16.176h2.52l5.521,16.176h-2.232l-1.729-5.088H296.498z
			 M301.802,401.192l-1.584-4.656c-0.36-1.055-0.6-2.016-0.84-2.951h-0.048c-0.24,0.959-0.504,1.943-0.816,2.928l-1.584,4.682h4.872
			V401.192z"/>
		<path fill="#FF1D25" d="M309.794,393.512h-4.92v-1.775h11.977v1.775h-4.944v14.4h-2.112L309.794,393.512L309.794,393.512z"/>
		<path fill="#FF931E" d="M330.314,407.194c-0.936,0.336-2.784,0.887-4.968,0.887c-2.448,0-4.464-0.623-6.049-2.135
			c-1.392-1.346-2.256-3.506-2.256-6.025c0.024-4.824,3.336-8.352,8.761-8.352c1.872,0,3.336,0.406,4.032,0.742l-0.504,1.705
			c-0.864-0.385-1.944-0.695-3.577-0.695c-3.936,0-6.504,2.447-6.504,6.504c0,4.104,2.472,6.529,6.241,6.529
			c1.368,0,2.304-0.193,2.784-0.434v-4.824h-3.289v-1.68h5.329V407.194z"/>
		<path fill="#7AC943" d="M344.81,407.385c-0.768,0.383-2.304,0.768-4.272,0.768c-4.561,0-7.993-2.879-7.993-8.186
			c0-5.062,3.432-8.496,8.449-8.496c2.016,0,3.288,0.434,3.84,0.721l-0.504,1.705c-0.792-0.385-1.92-0.674-3.264-0.674
			c-3.792,0-6.312,2.426-6.312,6.674c0,3.961,2.28,6.504,6.216,6.504c1.272,0,2.568-0.264,3.409-0.672L344.81,407.385z"/>
	</g>
	<g>
		<rect x="207.498" y="419.079" fill="none" width="158.092" height="28.205"/>
		<path fill="#3FA9F5" d="M211.938,431.03l-1.68,5.088h-2.16l5.497-16.178h2.52l5.521,16.178h-2.232l-1.729-5.088H211.938z
			 M217.242,429.397l-1.584-4.656c-0.36-1.057-0.6-2.016-0.84-2.951h-0.048c-0.24,0.959-0.504,1.943-0.816,2.928l-1.584,4.682h4.872
			V429.397z"/>
		<path fill="#7AC943" d="M234.955,435.59c-0.768,0.383-2.304,0.768-4.272,0.768c-4.561,0-7.993-2.881-7.993-8.186
			c0-5.064,3.432-8.496,8.449-8.496c2.016,0,3.288,0.432,3.84,0.721l-0.504,1.703c-0.792-0.385-1.92-0.672-3.264-0.672
			c-3.792,0-6.312,2.424-6.312,6.672c0,3.961,2.28,6.506,6.216,6.506c1.272,0,2.568-0.266,3.409-0.672L234.955,435.59z"/>
		<path fill="#FF1D25" d="M241.313,421.715h-4.92v-1.775h11.977v1.775h-4.944v14.402h-2.112L241.313,421.715L241.313,421.715z"/>
		<path fill="#7AC943" d="M260.826,435.59c-0.768,0.383-2.304,0.768-4.272,0.768c-4.561,0-7.993-2.881-7.993-8.186
			c0-5.064,3.432-8.496,8.449-8.496c2.016,0,3.288,0.432,3.84,0.721l-0.504,1.703c-0.792-0.385-1.92-0.672-3.264-0.672
			c-3.792,0-6.312,2.424-6.312,6.672c0,3.961,2.28,6.506,6.216,6.506c1.272,0,2.568-0.266,3.409-0.672L260.826,435.59z"/>
	</g>
	<g>
		<rect x="207.437" y="447.284" fill="none" width="158.093" height="28.205"/>
		<path fill="#3FA9F5" d="M211.877,459.235l-1.68,5.088h-2.16l5.497-16.178h2.52l5.521,16.178h-2.232l-1.728-5.088H211.877z
			 M217.182,457.602l-1.584-4.656c-0.36-1.057-0.6-2.016-0.84-2.951h-0.048c-0.24,0.959-0.504,1.943-0.816,2.928l-1.584,4.68
			H217.182L217.182,457.602z"/>
		<path fill="#7AC943" d="M234.894,463.795c-0.768,0.383-2.304,0.768-4.272,0.768c-4.561,0-7.993-2.881-7.993-8.186
			c0-5.064,3.432-8.496,8.449-8.496c2.016,0,3.288,0.432,3.84,0.721l-0.504,1.703c-0.792-0.385-1.92-0.672-3.264-0.672
			c-3.792,0-6.312,2.424-6.312,6.672c0,3.961,2.28,6.506,6.216,6.506c1.272,0,2.568-0.266,3.409-0.672L234.894,463.795z"/>
	</g>
</g>
<g>
	<g>
		<rect x="394.994" y="365.049" fill="none" width="157.824" height="28.205"/>
		<path fill="#3FA9F5" d="M399.435,377.002l-1.68,5.088h-2.16l5.497-16.178h2.521l5.521,16.178h-2.231l-1.729-5.088H399.435z
			 M404.739,375.37l-1.584-4.656c-0.36-1.055-0.601-2.016-0.84-2.951h-0.049c-0.239,0.959-0.504,1.943-0.815,2.93l-1.584,4.68h4.872
			V375.37z"/>
		<path fill="#7AC943" d="M422.451,381.563c-0.769,0.385-2.304,0.768-4.271,0.768c-4.561,0-7.993-2.879-7.993-8.184
			c0-5.064,3.433-8.498,8.449-8.498c2.018,0,3.288,0.434,3.841,0.721l-0.505,1.705c-0.792-0.385-1.92-0.674-3.265-0.674
			c-3.792,0-6.312,2.426-6.312,6.674c0,3.961,2.28,6.504,6.217,6.504c1.271,0,2.567-0.264,3.407-0.672L422.451,381.563z"/>
		<path fill="#FF1D25" d="M428.81,367.69h-4.92v-1.775h11.978v1.775h-4.943v14.4h-2.113L428.81,367.69L428.81,367.69z"/>
		<path fill="#7AC943" d="M448.323,381.563c-0.77,0.385-2.304,0.768-4.272,0.768c-4.561,0-7.992-2.879-7.992-8.184
			c0-5.064,3.433-8.498,8.449-8.498c2.017,0,3.287,0.434,3.84,0.721l-0.504,1.705c-0.793-0.385-1.92-0.674-3.265-0.674
			c-3.792,0-6.312,2.426-6.312,6.674c0,3.961,2.28,6.504,6.217,6.504c1.272,0,2.567-0.264,3.408-0.672L448.323,381.563z"/>
		<path fill="#3FA9F5" d="M453.65,377.002l-1.681,5.088h-2.16l5.496-16.178h2.521l5.521,16.178h-2.231l-1.729-5.088H453.65z
			 M458.955,375.37l-1.584-4.656c-0.359-1.055-0.6-2.016-0.84-2.951h-0.049c-0.239,0.959-0.505,1.943-0.815,2.93l-1.584,4.68h4.872
			V375.37z"/>
		<path fill="#FF931E" d="M477.675,381.372c-0.937,0.336-2.785,0.887-4.969,0.887c-2.448,0-4.465-0.623-6.049-2.135
			c-1.394-1.346-2.256-3.506-2.256-6.025c0.022-4.822,3.336-8.352,8.761-8.352c1.872,0,3.336,0.406,4.032,0.742l-0.505,1.705
			c-0.863-0.385-1.943-0.695-3.575-0.695c-3.938,0-6.505,2.447-6.505,6.504c0,4.105,2.472,6.529,6.24,6.529
			c1.367,0,2.305-0.193,2.783-0.434v-4.824h-3.288v-1.68h5.329L477.675,381.372L477.675,381.372z"/>
		<path fill="#3FA9F5" d="M483.482,377.002l-1.681,5.088h-2.16l5.496-16.178h2.521l5.521,16.178h-2.231l-1.729-5.088H483.482z
			 M488.787,375.37l-1.584-4.656c-0.36-1.055-0.602-2.016-0.84-2.951h-0.049c-0.24,0.959-0.505,1.943-0.816,2.93l-1.584,4.68h4.873
			V375.37z"/>
		<path fill="#FF1D25" d="M496.779,367.69h-4.921v-1.775h11.978v1.775h-4.945v14.4h-2.11L496.779,367.69L496.779,367.69z"/>
		<path fill="#FF931E" d="M517.298,381.372c-0.936,0.336-2.783,0.887-4.968,0.887c-2.448,0-4.464-0.623-6.049-2.135
			c-1.393-1.346-2.256-3.506-2.256-6.025c0.023-4.822,3.336-8.352,8.761-8.352c1.872,0,3.336,0.406,4.032,0.742l-0.505,1.705
			c-0.863-0.385-1.943-0.695-3.576-0.695c-3.937,0-6.505,2.447-6.505,6.504c0,4.105,2.474,6.529,6.24,6.529
			c1.369,0,2.306-0.193,2.785-0.434v-4.824h-3.289v-1.68h5.328L517.298,381.372L517.298,381.372z"/>
		<path fill="#7AC943" d="M531.794,381.563c-0.768,0.385-2.305,0.768-4.271,0.768c-4.562,0-7.993-2.879-7.993-8.184
			c0-5.064,3.433-8.498,8.448-8.498c2.017,0,3.288,0.434,3.841,0.721l-0.505,1.705c-0.791-0.385-1.92-0.674-3.265-0.674
			c-3.793,0-6.312,2.426-6.312,6.674c0,3.961,2.279,6.504,6.217,6.504c1.271,0,2.568-0.264,3.408-0.672L531.794,381.563z"/>
		<path fill="#FF1D25" d="M538.154,367.69h-4.92v-1.775h11.977v1.775h-4.944v14.4h-2.111L538.154,367.69L538.154,367.69z"/>
	</g>
	<g>
		<rect x="395.281" y="393.256" fill="none" width="157.822" height="28.205"/>
		<path fill="#3FA9F5" d="M399.721,405.208l-1.68,5.09h-2.16l5.497-16.178h2.521l5.521,16.178h-2.231l-1.729-5.09H399.721z
			 M405.025,403.577l-1.584-4.656c-0.36-1.057-0.601-2.016-0.841-2.953h-0.048c-0.24,0.961-0.504,1.945-0.815,2.93l-1.584,4.682
			h4.872V403.577z"/>
		<path fill="#7AC943" d="M422.738,409.768c-0.769,0.385-2.306,0.77-4.271,0.77c-4.561,0-7.993-2.881-7.993-8.186
			c0-5.064,3.433-8.496,8.448-8.496c2.018,0,3.289,0.432,3.841,0.721l-0.505,1.703c-0.791-0.385-1.92-0.672-3.264-0.672
			c-3.793,0-6.312,2.424-6.312,6.672c0,3.961,2.28,6.506,6.218,6.506c1.271,0,2.567-0.266,3.407-0.672L422.738,409.768z"/>
		<path fill="#FF1D25" d="M429.097,395.895h-4.92v-1.775h11.978v1.775h-4.944v14.402h-2.112L429.097,395.895L429.097,395.895z"/>
		<path fill="#7AC943" d="M448.609,409.768c-0.769,0.385-2.305,0.77-4.271,0.77c-4.561,0-7.992-2.881-7.992-8.186
			c0-5.064,3.433-8.496,8.448-8.496c2.017,0,3.288,0.432,3.841,0.721l-0.505,1.703c-0.792-0.385-1.92-0.672-3.265-0.672
			c-3.792,0-6.312,2.424-6.312,6.672c0,3.961,2.281,6.506,6.217,6.506c1.272,0,2.568-0.266,3.408-0.672L448.609,409.768z"/>
		<path fill="#3FA9F5" d="M453.938,405.208l-1.681,5.09h-2.16l5.496-16.178h2.521l5.521,16.178h-2.231l-1.729-5.09H453.938z
			 M459.242,403.577l-1.584-4.656c-0.36-1.057-0.602-2.016-0.84-2.953h-0.05c-0.239,0.961-0.504,1.945-0.815,2.93l-1.584,4.682
			h4.873V403.577z"/>
		<path fill="#FF931E" d="M477.961,409.577c-0.937,0.336-2.784,0.889-4.968,0.889c-2.449,0-4.465-0.625-6.049-2.137
			c-1.394-1.344-2.257-3.504-2.257-6.023c0.023-4.824,3.337-8.354,8.761-8.354c1.873,0,3.336,0.408,4.032,0.744l-0.504,1.705
			c-0.864-0.385-1.944-0.697-3.576-0.697c-3.938,0-6.506,2.449-6.506,6.504c0,4.105,2.474,6.529,6.241,6.529
			c1.368,0,2.304-0.191,2.784-0.432v-4.824h-3.289v-1.682h5.329L477.961,409.577L477.961,409.577z"/>
		<path fill="#3FA9F5" d="M483.77,405.208l-1.682,5.09h-2.16l5.497-16.178h2.521l5.521,16.178h-2.23l-1.729-5.09H483.77z
			 M489.073,403.577l-1.584-4.656c-0.36-1.057-0.602-2.016-0.84-2.953h-0.049c-0.239,0.961-0.504,1.945-0.815,2.93l-1.584,4.682
			h4.872V403.577z"/>
		<path fill="#FF1D25" d="M497.065,395.895h-4.921v-1.775h11.978v1.775h-4.944v14.402h-2.111L497.065,395.895L497.065,395.895z"/>
		<path fill="#FF931E" d="M517.585,409.577c-0.936,0.336-2.784,0.889-4.969,0.889c-2.447,0-4.464-0.625-6.049-2.137
			c-1.393-1.344-2.257-3.504-2.257-6.023c0.024-4.824,3.336-8.354,8.763-8.354c1.871,0,3.336,0.408,4.03,0.744l-0.504,1.705
			c-0.862-0.385-1.942-0.697-3.575-0.697c-3.937,0-6.505,2.449-6.505,6.504c0,4.105,2.473,6.529,6.24,6.529
			c1.368,0,2.306-0.191,2.784-0.432v-4.824h-3.288v-1.682h5.328L517.585,409.577L517.585,409.577z"/>
	</g>
	<g>
		<rect x="394.769" y="421.461" fill="none" width="157.822" height="28.203"/>
		<path fill="#3FA9F5" d="M399.209,433.413l-1.68,5.09h-2.16l5.497-16.178h2.52l5.521,16.178h-2.232l-1.729-5.09H399.209z
			 M404.513,431.782l-1.584-4.656c-0.359-1.057-0.6-2.018-0.84-2.953h-0.048c-0.24,0.961-0.504,1.943-0.816,2.928l-1.584,4.682
			H404.513L404.513,431.782z"/>
		<path fill="#7AC943" d="M422.226,437.973c-0.769,0.385-2.305,0.77-4.271,0.77c-4.562,0-7.993-2.881-7.993-8.186
			c0-5.064,3.432-8.498,8.449-8.498c2.016,0,3.288,0.434,3.84,0.721l-0.504,1.705c-0.792-0.385-1.92-0.674-3.264-0.674
			c-3.793,0-6.313,2.426-6.313,6.674c0,3.961,2.28,6.504,6.216,6.504c1.272,0,2.568-0.264,3.409-0.672L422.226,437.973z"/>
		<path fill="#FF1D25" d="M428.584,424.1h-4.921v-1.775h11.978v1.775h-4.943v14.4h-2.112L428.584,424.1L428.584,424.1z"/>
		<path fill="#7AC943" d="M448.097,437.973c-0.769,0.385-2.305,0.77-4.271,0.77c-4.562,0-7.993-2.881-7.993-8.186
			c0-5.064,3.433-8.498,8.449-8.498c2.016,0,3.288,0.434,3.84,0.721l-0.504,1.705c-0.792-0.385-1.92-0.674-3.265-0.674
			c-3.793,0-6.312,2.426-6.312,6.674c0,3.961,2.279,6.504,6.216,6.504c1.272,0,2.568-0.264,3.409-0.672L448.097,437.973z"/>
		<path fill="#3FA9F5" d="M453.424,433.413l-1.681,5.09h-2.16l5.497-16.178h2.521l5.521,16.178h-2.232l-1.728-5.09H453.424z
			 M458.729,431.782l-1.585-4.656c-0.358-1.057-0.6-2.018-0.84-2.953h-0.048c-0.239,0.961-0.504,1.943-0.814,2.928l-1.584,4.682
			H458.729L458.729,431.782z"/>
		<path fill="#FF931E" d="M477.449,437.782c-0.937,0.336-2.784,0.889-4.969,0.889c-2.447,0-4.465-0.625-6.05-2.137
			c-1.392-1.344-2.256-3.504-2.256-6.025c0.024-4.824,3.336-8.352,8.763-8.352c1.87,0,3.336,0.408,4.03,0.744l-0.504,1.703
			c-0.863-0.385-1.942-0.695-3.576-0.695c-3.936,0-6.504,2.447-6.504,6.504c0,4.104,2.472,6.529,6.24,6.529
			c1.368,0,2.305-0.191,2.784-0.434v-4.824h-3.288v-1.68h5.328L477.449,437.782L477.449,437.782z"/>
	</g>
</g>
<g>
	<g>
		<rect x="583.817" y="367" fill="none" width="159.739" height="28.205"/>
		<path fill="#3FA9F5" d="M588.257,378.952l-1.68,5.09h-2.16l5.496-16.178h2.521l5.521,16.178h-2.232l-1.729-5.09H588.257z
			 M593.562,377.321l-1.584-4.656c-0.359-1.057-0.601-2.018-0.841-2.953h-0.049c-0.239,0.961-0.504,1.943-0.814,2.928l-1.584,4.682
			H593.562L593.562,377.321z"/>
		<path fill="#7AC943" d="M611.275,383.512c-0.77,0.385-2.306,0.77-4.272,0.77c-4.561,0-7.993-2.881-7.993-8.186
			c0-5.064,3.434-8.498,8.449-8.498c2.016,0,3.288,0.434,3.84,0.721l-0.504,1.705c-0.792-0.385-1.92-0.674-3.264-0.674
			c-3.793,0-6.312,2.426-6.312,6.674c0,3.961,2.279,6.504,6.217,6.504c1.271,0,2.567-0.264,3.408-0.672L611.275,383.512z"/>
		<path fill="#FF1D25" d="M617.634,369.639h-4.921v-1.775h11.979v1.775h-4.945v14.4h-2.111L617.634,369.639L617.634,369.639z"/>
		<path fill="#7AC943" d="M637.146,383.512c-0.769,0.385-2.306,0.77-4.271,0.77c-4.561,0-7.993-2.881-7.993-8.186
			c0-5.064,3.434-8.498,8.448-8.498c2.017,0,3.289,0.434,3.841,0.721l-0.505,1.705c-0.791-0.385-1.92-0.674-3.264-0.674
			c-3.793,0-6.312,2.426-6.312,6.674c0,3.961,2.28,6.504,6.217,6.504c1.271,0,2.568-0.264,3.408-0.672L637.146,383.512z"/>
		<path fill="#3FA9F5" d="M642.474,378.952l-1.681,5.09h-2.16l5.497-16.178h2.521l5.521,16.178h-2.231l-1.729-5.09H642.474z
			 M647.778,377.321l-1.584-4.656c-0.36-1.057-0.602-2.018-0.841-2.953h-0.048c-0.239,0.961-0.504,1.943-0.815,2.928l-1.584,4.682
			H647.778L647.778,377.321z"/>
		<path fill="#FF931E" d="M666.498,383.321c-0.936,0.336-2.783,0.889-4.968,0.889c-2.448,0-4.464-0.625-6.05-2.137
			c-1.392-1.344-2.256-3.504-2.256-6.025c0.024-4.824,3.336-8.352,8.762-8.352c1.872,0,3.336,0.408,4.031,0.744l-0.504,1.703
			c-0.863-0.385-1.943-0.695-3.577-0.695c-3.936,0-6.504,2.447-6.504,6.504c0,4.104,2.474,6.529,6.24,6.529
			c1.369,0,2.305-0.191,2.785-0.434v-4.824h-3.289v-1.68h5.328L666.498,383.321L666.498,383.321z"/>
		<path fill="#3FA9F5" d="M672.305,378.952l-1.681,5.09h-2.16l5.497-16.178h2.521l5.52,16.178h-2.23l-1.729-5.09H672.305z
			 M677.609,377.321l-1.584-4.656c-0.359-1.057-0.601-2.018-0.841-2.953h-0.048c-0.238,0.961-0.504,1.943-0.814,2.928l-1.584,4.682
			H677.609L677.609,377.321z"/>
		<path fill="#FF1D25" d="M685.601,369.639h-4.92v-1.775h11.978v1.775h-4.943v14.4h-2.113L685.601,369.639L685.601,369.639z"/>
		<path fill="#FF931E" d="M706.123,383.321c-0.938,0.336-2.785,0.889-4.969,0.889c-2.448,0-4.465-0.625-6.049-2.137
			c-1.394-1.344-2.257-3.504-2.257-6.025c0.023-4.824,3.336-8.352,8.762-8.352c1.872,0,3.336,0.408,4.031,0.744l-0.504,1.703
			c-0.864-0.385-1.943-0.695-3.576-0.695c-3.937,0-6.505,2.447-6.505,6.504c0,4.104,2.473,6.529,6.241,6.529
			c1.367,0,2.304-0.191,2.783-0.434v-4.824h-3.288v-1.68h5.329L706.123,383.321L706.123,383.321z"/>
		<path fill="#7AC943" d="M720.618,383.512c-0.77,0.385-2.304,0.77-4.272,0.77c-4.561,0-7.992-2.881-7.992-8.186
			c0-5.064,3.433-8.498,8.449-8.498c2.017,0,3.287,0.434,3.84,0.721l-0.504,1.705c-0.793-0.385-1.92-0.674-3.265-0.674
			c-3.792,0-6.312,2.426-6.312,6.674c0,3.961,2.28,6.504,6.217,6.504c1.272,0,2.567-0.264,3.408-0.672L720.618,383.512z"/>
		<path fill="#FF1D25" d="M726.977,369.639h-4.921v-1.775h11.979v1.775h-4.944v14.4h-2.111v-14.4H726.977z"/>
	</g>
	<g>
		<rect x="584.108" y="395.206" fill="none" width="159.737" height="28.205"/>
		<path fill="#3FA9F5" d="M588.548,407.157l-1.681,5.09h-2.16l5.497-16.178h2.52l5.521,16.178h-2.231l-1.729-5.09H588.548z
			 M593.852,405.526l-1.584-4.656c-0.359-1.057-0.601-2.018-0.84-2.953h-0.048c-0.24,0.961-0.504,1.943-0.815,2.928l-1.584,4.682
			H593.852L593.852,405.526z"/>
		<path fill="#7AC943" d="M611.564,411.717c-0.769,0.385-2.305,0.77-4.271,0.77c-4.561,0-7.992-2.881-7.992-8.186
			c0-5.064,3.433-8.498,8.448-8.498c2.017,0,3.288,0.434,3.841,0.721l-0.505,1.705c-0.792-0.385-1.92-0.674-3.265-0.674
			c-3.792,0-6.312,2.426-6.312,6.674c0,3.961,2.281,6.504,6.217,6.504c1.272,0,2.568-0.264,3.408-0.672L611.564,411.717z"/>
		<path fill="#FF1D25" d="M617.923,397.844h-4.92v-1.775h11.978v1.775h-4.944v14.4h-2.112L617.923,397.844L617.923,397.844z"/>
		<path fill="#7AC943" d="M637.435,411.717c-0.768,0.385-2.304,0.77-4.271,0.77c-4.561,0-7.992-2.881-7.992-8.186
			c0-5.064,3.432-8.498,8.448-8.498c2.017,0,3.288,0.434,3.841,0.721l-0.505,1.705c-0.792-0.385-1.92-0.674-3.265-0.674
			c-3.792,0-6.312,2.426-6.312,6.674c0,3.961,2.281,6.504,6.217,6.504c1.272,0,2.568-0.264,3.408-0.672L637.435,411.717z"/>
		<path fill="#3FA9F5" d="M642.763,407.157l-1.68,5.09h-2.16l5.496-16.178h2.521l5.521,16.178h-2.231l-1.729-5.09H642.763z
			 M648.068,405.526l-1.584-4.656c-0.36-1.057-0.602-2.018-0.841-2.953h-0.049c-0.239,0.961-0.504,1.943-0.815,2.928l-1.584,4.682
			H648.068L648.068,405.526z"/>
		<path fill="#FF931E" d="M666.788,411.526c-0.938,0.336-2.784,0.889-4.968,0.889c-2.449,0-4.465-0.625-6.049-2.137
			c-1.394-1.346-2.257-3.504-2.257-6.025c0.023-4.824,3.336-8.352,8.761-8.352c1.873,0,3.336,0.406,4.032,0.744l-0.504,1.703
			c-0.864-0.385-1.944-0.695-3.577-0.695c-3.937,0-6.505,2.447-6.505,6.504c0,4.104,2.474,6.529,6.241,6.529
			c1.368,0,2.304-0.191,2.784-0.434v-4.824h-3.289v-1.68h5.329L666.788,411.526L666.788,411.526z"/>
		<path fill="#3FA9F5" d="M672.595,407.157l-1.681,5.09h-2.16l5.497-16.178h2.521l5.521,16.178h-2.231l-1.729-5.09H672.595z
			 M677.899,405.526l-1.584-4.656c-0.36-1.057-0.602-2.018-0.841-2.953h-0.048c-0.239,0.961-0.504,1.943-0.815,2.928l-1.584,4.682
			H677.899L677.899,405.526z"/>
		<path fill="#FF1D25" d="M685.891,397.844h-4.921v-1.775h11.979v1.775h-4.944v14.4h-2.112L685.891,397.844L685.891,397.844z"/>
	</g>
	<g>
		<rect x="583.588" y="423.411" fill="none" width="159.74" height="28.205"/>
		<path fill="#3FA9F5" d="M588.029,435.364l-1.681,5.088h-2.159l5.495-16.178h2.521l5.521,16.178h-2.231l-1.729-5.088H588.029z
			 M593.333,433.731l-1.584-4.656c-0.359-1.057-0.6-2.018-0.84-2.953h-0.049c-0.239,0.961-0.505,1.945-0.815,2.93l-1.584,4.682
			h4.872V433.731z"/>
		<path fill="#7AC943" d="M611.046,439.922c-0.769,0.385-2.305,0.77-4.271,0.77c-4.562,0-7.993-2.881-7.993-8.186
			c0-5.064,3.433-8.496,8.449-8.496c2.016,0,3.287,0.432,3.84,0.721l-0.504,1.703c-0.792-0.385-1.92-0.672-3.265-0.672
			c-3.793,0-6.312,2.424-6.312,6.672c0,3.961,2.279,6.506,6.216,6.506c1.272,0,2.568-0.266,3.409-0.674L611.046,439.922z"/>
		<path fill="#FF1D25" d="M617.405,426.049h-4.921v-1.775h11.978v1.775h-4.944v14.402h-2.111L617.405,426.049L617.405,426.049z"/>
	</g>
</g>
</svg>
