<?xml version="1.0" encoding="utf-8"?>
<!-- Generator: Adobe Illustrator 15.0.0, SVG Export Plug-In . SVG Version: 6.00 Build 0)  -->
<!DOCTYPE svg PUBLIC "-//W3C//DTD SVG 1.1//EN" "http://www.w3.org/Graphics/SVG/1.1/DTD/svg11.dtd">
<svg version="1.1" id="svg2453" xmlns:svg="http://www.w3.org/2000/svg"
	 xmlns="http://www.w3.org/2000/svg" xmlns:xlink="http://www.w3.org/1999/xlink" x="0px" y="0px" width="700px" height="224px"
	 viewBox="0 259 700 224" enable-background="new 0 259 700 224" xml:space="preserve">
<path id="path4124" fill="#FF0000" d="M699.344,258.344L629.688,259c-60.177,24.102-74.234,93.753-184.281,106.125
	c101.941,36.271,127.019,98.315,214.219,117.219c23.604,0.222,40.375,0,40.375,0L699.344,258.344z M299.531,285.031
	c0,0-149.128,1.309-189.5,48.844C263.055,349.503,299.531,285.031,299.531,285.031z"/>
<path id="path4122" fill="#00FF00" d="M440.844,257.031c-126.977,0-182.985,126.334-321.031,153.031
	C261.484,439.525,350.265,480.006,442.125,483c93.497-1.505,257.219,0,257.219,0l-1.313-222.688L440.844,257.031z"/>
<path id="path2502" fill="#FFFF00" d="M628.656,259.438c-59.299,24.484-73.843,93.387-183.25,105.688
	c101.941,36.271,127.019,98.315,214.219,117.219c22.92,0.215,38.785,0.012,39.719,0l-1.313-222.031L628.656,259.438z"/>
<path fill="none" d=""/>
<path id="path3330" stroke="#000000" d="M675,233"/>
</svg>
