<?xml version="1.0" encoding="utf-8"?>
<!-- Generator: Adobe Illustrator 15.0.0, SVG Export Plug-In . SVG Version: 6.00 Build 0)  -->
<!DOCTYPE svg PUBLIC "-//W3C//DTD SVG 1.1//EN" "http://www.w3.org/Graphics/SVG/1.1/DTD/svg11.dtd">
<svg version="1.1" id="svg2453" xmlns:svg="http://www.w3.org/2000/svg"
	 xmlns="http://www.w3.org/2000/svg" xmlns:xlink="http://www.w3.org/1999/xlink" x="0px" y="0px" width="700px" height="225px"
	 viewBox="0 0 700 225" enable-background="new 0 0 700 225" xml:space="preserve">
<path id="path4124" fill="#FF0000" d="M414.938,0.656C314.761,3.13,301.942,36.32,175,49.531
	c193.517,26.54,195.416,167.573,345.063,174.375v-0.625l179.313,1.25L698.75,0.656H414.938z"/>
<path id="path4122" fill="#00FF00" d="M700.656-0.813l-296.938,3.25c-89.735,21.962-193.4,138.711-284.563,149.781
	C276.737,185.428,345.377,217.486,413.5,224.5l287.156,1.938V-0.813z"/>
<path id="path2502" fill="#FFFF00" d="M566.469,0.656l-162.75,1.781c-42.641,10.436-88.437,42.268-134.531,74
	c105.725,49.734,130.538,141.999,250.875,147.469v-0.625l179.313,1.25L698.75,0.656H566.469z"/>
<path fill="none" d=""/>
<path id="path3330" stroke="#000000" d="M675,233"/>
</svg>
