<?xml version="1.0" encoding="utf-8"?>
<!-- Generator: Adobe Illustrator 16.0.0, SVG Export Plug-In . SVG Version: 6.00 Build 0)  -->
<!DOCTYPE svg PUBLIC "-//W3C//DTD SVG 1.1//EN" "http://www.w3.org/Graphics/SVG/1.1/DTD/svg11.dtd">
<svg version="1.1" id="Layer_1" xmlns="http://www.w3.org/2000/svg" xmlns:xlink="http://www.w3.org/1999/xlink" x="0px" y="0px"
	 width="354px" height="353px" viewBox="0 0 354 353" enable-background="new 0 0 354 353" xml:space="preserve">
<polygon fill="#F2F2F2" stroke="#F2F2F2" stroke-width="4" stroke-linecap="round" stroke-miterlimit="10" points="299.249,353 
	0,353 57.265,65 354,65 "/>
<line fill="none" stroke="#FF931E" stroke-width="6" stroke-miterlimit="10" x1="252" y1="240" x2="252" y2="279"/>
<line fill="none" stroke="#3FA9F5" stroke-width="6" stroke-miterlimit="10" x1="167" y1="254" x2="167" y2="293"/>
<line fill="none" stroke="#3FA9F5" stroke-width="6" stroke-miterlimit="10" x1="209" y1="268" x2="209" y2="307"/>
<line fill="none" stroke="#FF931E" stroke-width="6" stroke-miterlimit="10" x1="235" y1="307" x2="235" y2="346"/>
<line fill="none" stroke="#3FA9F5" stroke-width="6" stroke-miterlimit="10" x1="278" y1="265" x2="278" y2="304"/>
<line fill="none" stroke="#FF931E" stroke-width="6" stroke-miterlimit="10" x1="155" y1="159" x2="155" y2="198"/>
<line fill="none" stroke="#3FA9F5" stroke-width="6" stroke-miterlimit="10" x1="185" y1="201" x2="185" y2="240"/>
<line fill="none" stroke="#3FA9F5" stroke-width="6" stroke-miterlimit="10" x1="317" y1="87" x2="317" y2="126"/>
<line fill="none" stroke="#FF931E" stroke-width="6" stroke-miterlimit="10" x1="310" y1="144" x2="310" y2="183"/>
<line fill="none" stroke="#FF931E" stroke-width="6" stroke-miterlimit="10" x1="166" y1="92" x2="166" y2="131"/>
<line fill="none" stroke="#FF931E" stroke-width="6" stroke-miterlimit="10" x1="144" y1="73" x2="144" y2="112"/>
<line fill="none" stroke="#3FA9F5" stroke-width="6" stroke-miterlimit="10" x1="185" y1="134" x2="185" y2="173"/>
<line fill="none" stroke="#3FA9F5" stroke-width="6" stroke-miterlimit="10" x1="82" y1="68" x2="82" y2="107"/>
<line fill="none" stroke="#FF931E" stroke-width="6" stroke-miterlimit="10" x1="85" y1="301" x2="85" y2="340"/>
<line fill="none" stroke="#3FA9F5" stroke-width="6" stroke-linecap="round" stroke-miterlimit="10" x1="85" y1="134" x2="85" y2="173"/>
<line fill="none" stroke="#3FA9F5" stroke-width="6" stroke-miterlimit="10" x1="73" y1="262" x2="73" y2="301"/>
<line fill="none" stroke="#FF931E" stroke-width="6" stroke-linecap="round" stroke-miterlimit="10" x1="73" y1="98" x2="73" y2="137"/>
<line fill="none" stroke="#3FA9F5" stroke-width="6" stroke-miterlimit="10" x1="111" y1="294" x2="111" y2="333"/>
<line fill="none" stroke="#FF931E" stroke-width="6" stroke-linecap="round" stroke-miterlimit="10" x1="111" y1="130" x2="111" y2="169"/>
<line fill="none" stroke="#FF931E" stroke-width="6" stroke-miterlimit="10" x1="129" y1="285" x2="129" y2="324"/>
<line fill="none" stroke="#3FA9F5" stroke-width="6" stroke-linecap="round" stroke-miterlimit="10" x1="129" y1="118" x2="129" y2="157"/>
<line fill="none" stroke="#FF931E" stroke-width="6" stroke-miterlimit="10" x1="47" y1="307" x2="47" y2="346"/>
<line fill="none" stroke="#3FA9F5" stroke-width="6" stroke-linecap="round" stroke-linejoin="round" stroke-miterlimit="10" x1="47" y1="140" x2="47" y2="179"/>
<line fill="none" stroke="#FF931E" stroke-width="6" stroke-miterlimit="10" x1="99" y1="273" x2="99" y2="312"/>
<line fill="none" stroke="#3FA9F5" stroke-width="6" stroke-linecap="round" stroke-miterlimit="10" x1="99" y1="106" x2="99" y2="145"/>
<line fill="none" stroke="#FF931E" stroke-width="6" stroke-miterlimit="10" x1="215" y1="144" x2="215" y2="183"/>
<line fill="none" stroke="#3FA9F5" stroke-width="6" stroke-linecap="round" stroke-miterlimit="10" x1="215" y1="13" x2="215" y2="52"/>
<line fill="none" stroke="#3FA9F5" stroke-width="6" stroke-miterlimit="10" x1="247" y1="180" x2="247" y2="219"/>
<line fill="none" stroke="#FF931E" stroke-width="6" stroke-linecap="round" stroke-miterlimit="10" x1="247" y1="42" x2="247" y2="81"/>
<line fill="none" stroke="#3FA9F5" stroke-width="6" stroke-miterlimit="10" x1="261" y1="161" x2="261" y2="200"/>
<line fill="none" stroke="#FF931E" stroke-width="6" stroke-linecap="round" stroke-miterlimit="10" x1="261" y1="23" x2="261" y2="62"/>
<line fill="none" stroke="#FF931E" stroke-width="6" stroke-miterlimit="10" x1="231" y1="172" x2="231" y2="211"/>
<line fill="none" stroke="#3FA9F5" stroke-width="6" stroke-linecap="round" stroke-miterlimit="10" x1="231" y1="41" x2="231" y2="80"/>
<line fill="none" stroke="#FF931E" stroke-width="6" stroke-miterlimit="10" x1="273" y1="180" x2="273" y2="219"/>
<line fill="none" stroke="#3FA9F5" stroke-width="6" stroke-linecap="round" stroke-miterlimit="10" x1="273" y1="49" x2="273" y2="88"/>
<line fill="none" stroke="#FF931E" stroke-width="6" stroke-miterlimit="10" x1="286" y1="171" x2="286" y2="210"/>
<line fill="none" stroke="#3FA9F5" stroke-width="6" stroke-linecap="round" stroke-miterlimit="10" x1="286" y1="40" x2="286" y2="79"/>
<line fill="none" stroke="#000000" stroke-width="6" stroke-miterlimit="10" x1="47" y1="178" x2="47" y2="307"/>
<line fill="none" stroke="#3FA9F5" stroke-width="6" stroke-miterlimit="10" x1="60" y1="284" x2="60" y2="323"/>
<line fill="none" stroke="#FF931E" stroke-width="6" stroke-linecap="round" stroke-miterlimit="10" x1="60" y1="120" x2="60" y2="159"/>
<line fill="none" stroke="#000000" stroke-width="6" stroke-miterlimit="10" x1="85" y1="172" x2="85" y2="301"/>
<line fill="none" stroke="#000000" stroke-width="6" stroke-miterlimit="10" x1="73" y1="137" x2="73" y2="262"/>
<line fill="none" stroke="#000000" stroke-width="6" stroke-miterlimit="10" x1="111" y1="169" x2="111" y2="294"/>
<line fill="none" stroke="#000000" stroke-width="6" stroke-miterlimit="10" x1="129" y1="156" x2="129" y2="285"/>
<line fill="none" stroke="#000000" stroke-width="6" stroke-miterlimit="10" x1="99" y1="144" x2="99" y2="273"/>
<line fill="none" stroke="#000000" stroke-width="6" stroke-miterlimit="10" x1="60" y1="159" x2="60" y2="284"/>
<line fill="none" stroke="#000000" stroke-width="6" stroke-miterlimit="10" x1="215" y1="144" x2="215" y2="52"/>
<line fill="none" stroke="#000000" stroke-width="6" stroke-miterlimit="10" x1="247" y1="180" x2="247" y2="81"/>
<line fill="none" stroke="#000000" stroke-width="6" stroke-miterlimit="10" x1="261" y1="161" x2="261" y2="62"/>
<line fill="none" stroke="#000000" stroke-width="6" stroke-miterlimit="10" x1="231" y1="172" x2="231" y2="80"/>
<line fill="none" stroke="#000000" stroke-width="6" stroke-miterlimit="10" x1="273" y1="183" x2="273" y2="88"/>
<line fill="none" stroke="#000000" stroke-width="6" stroke-miterlimit="10" x1="286" y1="171" x2="286" y2="79"/>
<g>
</g>
<g>
</g>
<g>
</g>
<g>
</g>
<g>
</g>
<g>
</g>
<g>
</g>
<g>
</g>
<g>
</g>
<g>
</g>
<g>
</g>
<g>
</g>
<g>
</g>
<g>
</g>
<g>
</g>
</svg>
