<?xml version="1.0" encoding="utf-8"?>
<!-- Generator: Adobe Illustrator 16.0.0, SVG Export Plug-In . SVG Version: 6.00 Build 0)  -->
<!DOCTYPE svg PUBLIC "-//W3C//DTD SVG 1.1//EN" "http://www.w3.org/Graphics/SVG/1.1/DTD/svg11.dtd">
<svg version="1.1" id="Layer_1" xmlns="http://www.w3.org/2000/svg" xmlns:xlink="http://www.w3.org/1999/xlink" x="0px" y="0px"
	 width="779px" height="314px" viewBox="0 0 779 314" enable-background="new 0 0 779 314" xml:space="preserve">
<line fill="none" stroke="#000000" stroke-width="5" stroke-miterlimit="10" x1="49.405" y1="138.601" x2="93.695" y2="240"/>
<line fill="none" stroke="#000000" stroke-width="5" stroke-miterlimit="10" x1="60.947" y1="135.003" x2="107.078" y2="235.052"/>
<line fill="none" stroke="#000000" stroke-width="5" stroke-miterlimit="10" x1="92.864" y1="65.739" x2="142.009" y2="184.363"/>
<line fill="none" stroke="#000000" stroke-width="5" stroke-miterlimit="10" x1="104.488" y1="59.081" x2="153.634" y2="177.705"/>
<line fill="none" stroke="#000000" stroke-width="5" stroke-miterlimit="10" x1="95.181" y1="11.88" x2="15.207" y2="138.738"/>
<line fill="none" stroke="#000000" stroke-width="5" stroke-miterlimit="10" x1="173.622" y1="166.51" x2="135.193" y2="240.449"/>
<line fill="none" stroke="#000000" stroke-width="5" stroke-miterlimit="10" x1="184.404" y1="173.42" x2="145.975" y2="247.361"/>
<line fill="none" stroke="#3FA9F5" stroke-width="5" stroke-miterlimit="10" x1="341.228" y1="67.114" x2="336.604" y2="103.128"/>
<line fill="none" stroke="#3FA9F5" stroke-width="5" stroke-miterlimit="10" x1="350.535" y1="67.46" x2="345.91" y2="103.476"/>
<line fill="none" stroke="#000000" stroke-width="5" stroke-miterlimit="10" x1="107.374" y1="18.499" x2="27.398" y2="145.358"/>
<line fill="none" stroke="#FF931E" stroke-width="5" stroke-miterlimit="10" x1="301.094" y1="123.854" x2="309.125" y2="159.264"/>
<line fill="none" stroke="#FF931E" stroke-width="5" stroke-miterlimit="10" x1="310.015" y1="121.324" x2="318.047" y2="156.736"/>
<line fill="none" stroke="#3FA9F5" stroke-width="5" stroke-miterlimit="10" x1="387.249" y1="133.413" x2="351.864" y2="141.555"/>
<line fill="none" stroke="#3FA9F5" stroke-width="5" stroke-miterlimit="10" x1="385.275" y1="124.032" x2="349.889" y2="132.175"/>
<line fill="none" stroke="#FF931E" stroke-width="5" stroke-miterlimit="10" x1="285.711" y1="83.193" x2="261.735" y2="110.462"/>
<line fill="none" stroke="#FF931E" stroke-width="5" stroke-miterlimit="10" x1="293.404" y1="89.126" x2="269.428" y2="116.396"/>
<line fill="none" stroke="#3FA9F5" stroke-width="5" stroke-miterlimit="10" x1="409.406" y1="91.107" x2="374.102" y2="99.594"/>
<line fill="none" stroke="#3FA9F5" stroke-width="5" stroke-miterlimit="10" x1="412.037" y1="99.994" x2="376.732" y2="108.48"/>
<line fill="none" stroke="#FF931E" stroke-width="5" stroke-miterlimit="10" x1="335.871" y1="209.528" x2="331.779" y2="173.449"/>
<line fill="none" stroke="#FF931E" stroke-width="5" stroke-miterlimit="10" x1="326.721" y1="211.172" x2="322.628" y2="175.092"/>
<line fill="none" stroke="#FF931E" stroke-width="5" stroke-miterlimit="10" x1="278.798" y1="206.363" x2="274.706" y2="170.285"/>
<line fill="none" stroke="#FF931E" stroke-width="5" stroke-miterlimit="10" x1="288.46" y1="205.355" x2="284.368" y2="169.275"/>
<line fill="none" stroke="#3FA9F5" stroke-width="5" stroke-miterlimit="10" x1="373.738" y1="191.368" x2="369.646" y2="155.29"/>
<g>
	<rect x="32.498" y="259.314" fill="none" width="143.98" height="61.686"/>
	<path d="M52.597,260.073h7.622v1.532h-5.795v4.703h5.354v1.512h-5.354v6.404h-1.827V260.073z"/>
	<path d="M62.215,267.232c0-1.196-0.021-2.225-0.084-3.17h1.617l0.063,1.994h0.084c0.462-1.364,1.575-2.225,2.813-2.225
		c0.21,0,0.357,0.021,0.525,0.062v1.742c-0.189-0.041-0.378-0.062-0.63-0.062c-1.302,0-2.226,0.986-2.478,2.373
		c-0.042,0.252-0.084,0.545-0.084,0.86v5.417h-1.827V267.232z"/>
	<path d="M74.604,274.225l-0.147-1.281h-0.063c-0.567,0.799-1.659,1.512-3.107,1.512c-2.058,0-3.107-1.448-3.107-2.918
		c0-2.457,2.184-3.801,6.11-3.779v-0.21c0-0.84-0.231-2.352-2.31-2.352c-0.945,0-1.932,0.294-2.646,0.756l-0.42-1.218
		c0.84-0.546,2.058-0.902,3.338-0.902c3.107,0,3.863,2.12,3.863,4.156v3.801c0,0.882,0.042,1.742,0.168,2.436H74.604z
		 M74.332,269.039c-2.016-0.043-4.304,0.314-4.304,2.288c0,1.196,0.798,1.764,1.743,1.764c1.323,0,2.163-0.84,2.457-1.7
		c0.063-0.189,0.105-0.399,0.105-0.588V269.039z"/>
	<path d="M87.855,264.062c-0.042,0.734-0.084,1.554-0.084,2.793v5.899c0,2.331-0.462,3.759-1.449,4.64
		c-0.987,0.924-2.415,1.219-3.695,1.219c-1.218,0-2.562-0.295-3.38-0.84l0.462-1.407c0.672,0.42,1.722,0.798,2.981,0.798
		c1.89,0,3.275-0.986,3.275-3.549v-1.133h-0.042c-0.567,0.944-1.659,1.7-3.233,1.7c-2.52,0-4.325-2.142-4.325-4.955
		c0-3.443,2.247-5.396,4.577-5.396c1.764,0,2.729,0.924,3.17,1.764h0.042l0.084-1.533H87.855z M85.944,268.072
		c0-0.314-0.021-0.588-0.105-0.84c-0.336-1.07-1.239-1.952-2.583-1.952c-1.764,0-3.023,1.491-3.023,3.843
		c0,1.994,1.008,3.652,3.002,3.652c1.134,0,2.163-0.713,2.562-1.889c0.105-0.315,0.147-0.672,0.147-0.987V268.072z"/>
	<path d="M90.712,266.812c0-1.049-0.021-1.91-0.084-2.75h1.617l0.084,1.638h0.063c0.567-0.966,1.512-1.868,3.191-1.868
		c1.386,0,2.436,0.84,2.876,2.036h0.042c0.315-0.567,0.714-1.008,1.134-1.323c0.609-0.461,1.281-0.713,2.247-0.713
		c1.344,0,3.338,0.881,3.338,4.408v5.984h-1.806v-5.753c0-1.952-0.714-3.128-2.205-3.128c-1.05,0-1.869,0.776-2.184,1.68
		c-0.084,0.252-0.147,0.588-0.147,0.924v6.277h-1.806v-6.089c0-1.616-0.714-2.792-2.121-2.792c-1.155,0-1.995,0.924-2.289,1.848
		c-0.105,0.272-0.147,0.588-0.147,0.902v6.131h-1.806V266.812z"/>
	<path d="M109.255,269.479c0.042,2.499,1.638,3.527,3.485,3.527c1.323,0,2.121-0.231,2.813-0.524l0.315,1.322
		c-0.651,0.294-1.764,0.63-3.38,0.63c-3.128,0-4.997-2.058-4.997-5.123s1.806-5.479,4.766-5.479c3.317,0,4.199,2.918,4.199,4.787
		c0,0.377-0.042,0.672-0.063,0.86H109.255z M114.672,268.156c0.021-1.176-0.483-3.002-2.562-3.002c-1.869,0-2.688,1.722-2.834,3.002
		H114.672z"/>
	<path d="M118.748,266.812c0-1.049-0.021-1.91-0.084-2.75h1.638l0.105,1.68h0.042c0.504-0.966,1.68-1.91,3.359-1.91
		c1.407,0,3.59,0.84,3.59,4.324v6.068h-1.848v-5.857c0-1.639-0.609-3.003-2.352-3.003c-1.218,0-2.163,0.86-2.478,1.89
		c-0.084,0.23-0.126,0.546-0.126,0.861v6.109h-1.848V266.812z"/>
	<path d="M132.544,261.145v2.918h2.646v1.406h-2.646v5.48c0,1.26,0.357,1.974,1.386,1.974c0.483,0,0.84-0.063,1.071-0.126
		l0.084,1.386c-0.357,0.147-0.924,0.252-1.638,0.252c-0.861,0-1.554-0.272-1.995-0.776c-0.525-0.547-0.714-1.449-0.714-2.646v-5.543
		h-1.575v-1.406h1.575v-2.436L132.544,261.145z"/>
	<path d="M138.172,269.479c0.042,2.499,1.638,3.527,3.485,3.527c1.323,0,2.121-0.231,2.813-0.524l0.315,1.322
		c-0.651,0.294-1.764,0.63-3.38,0.63c-3.128,0-4.997-2.058-4.997-5.123s1.806-5.479,4.766-5.479c3.317,0,4.199,2.918,4.199,4.787
		c0,0.377-0.042,0.672-0.063,0.86H138.172z M143.589,268.156c0.021-1.176-0.483-3.002-2.562-3.002c-1.869,0-2.688,1.722-2.834,3.002
		H143.589z"/>
	<path d="M156.44,259.317V271.6c0,0.903,0.021,1.932,0.084,2.625h-1.659l-0.084-1.764h-0.042c-0.567,1.134-1.806,1.994-3.464,1.994
		c-2.457,0-4.346-2.078-4.346-5.164c-0.021-3.381,2.079-5.459,4.556-5.459c1.554,0,2.604,0.734,3.065,1.553h0.042v-6.067H156.44z
		 M154.593,268.199c0-0.231-0.021-0.547-0.084-0.777c-0.273-1.176-1.281-2.142-2.667-2.142c-1.911,0-3.044,1.68-3.044,3.927
		c0,2.057,1.008,3.758,3.002,3.758c1.239,0,2.373-0.818,2.708-2.205c0.063-0.252,0.084-0.504,0.084-0.797V268.199z"/>
	<path d="M85.756,285.461c1.113-0.168,2.436-0.293,3.884-0.293c2.625,0,4.493,0.608,5.732,1.764c1.26,1.154,1.995,2.792,1.995,5.08
		c0,2.311-0.714,4.199-2.037,5.502c-1.323,1.322-3.506,2.036-6.257,2.036c-1.302,0-2.394-0.063-3.317-0.168V285.461z
		 M87.583,297.975c0.462,0.084,1.134,0.105,1.848,0.105c3.905,0,6.026-2.184,6.026-6.005c0.021-3.339-1.869-5.459-5.732-5.459
		c-0.945,0-1.659,0.084-2.142,0.188V297.975z"/>
	<path d="M99.742,299.424v-14.151h1.995l4.535,7.159c1.05,1.659,1.869,3.15,2.541,4.599l0.042-0.021
		c-0.168-1.891-0.21-3.611-0.21-5.816v-5.921h1.722v14.151h-1.848l-4.493-7.181c-0.987-1.575-1.932-3.191-2.646-4.724l-0.063,0.021
		c0.105,1.784,0.147,3.485,0.147,5.837v6.047H99.742z"/>
	<path d="M115.849,294.973l-1.47,4.451h-1.89l4.808-14.151h2.205l4.829,14.151h-1.953l-1.512-4.451H115.849z M120.489,293.545
		l-1.386-4.073c-0.315-0.924-0.525-1.764-0.735-2.583h-0.042c-0.21,0.84-0.441,1.701-0.714,2.562l-1.386,4.094H120.489z"/>
</g>
<g>
	<rect x="279.709" y="259.314" fill="none" width="110.324" height="27.499"/>
	<path d="M299.234,269.773l-1.47,4.451h-1.89l4.808-14.151h2.205l4.829,14.151h-1.953l-1.512-4.451H299.234z M303.874,268.346
		l-1.386-4.073c-0.315-0.924-0.525-1.764-0.735-2.583h-0.042c-0.21,0.84-0.441,1.701-0.714,2.562l-1.386,4.094H303.874z"/>
	<path d="M318.259,259.317V271.6c0,0.903,0.021,1.932,0.084,2.625h-1.659l-0.084-1.764h-0.042c-0.567,1.134-1.806,1.994-3.464,1.994
		c-2.457,0-4.346-2.078-4.346-5.164c-0.021-3.381,2.079-5.459,4.556-5.459c1.554,0,2.604,0.734,3.065,1.553h0.042v-6.067H318.259z
		 M316.411,268.199c0-0.231-0.021-0.547-0.084-0.777c-0.273-1.176-1.281-2.142-2.667-2.142c-1.911,0-3.044,1.68-3.044,3.927
		c0,2.057,1.008,3.758,3.002,3.758c1.239,0,2.373-0.818,2.708-2.205c0.063-0.252,0.084-0.504,0.084-0.797V268.199z"/>
	<path d="M326.953,274.225l-0.147-1.281h-0.063c-0.567,0.799-1.659,1.512-3.107,1.512c-2.058,0-3.107-1.448-3.107-2.918
		c0-2.457,2.184-3.801,6.11-3.779v-0.21c0-0.84-0.231-2.352-2.31-2.352c-0.945,0-1.932,0.294-2.646,0.756l-0.42-1.218
		c0.84-0.546,2.058-0.902,3.338-0.902c3.107,0,3.863,2.12,3.863,4.156v3.801c0,0.882,0.042,1.742,0.168,2.436H326.953z
		 M326.68,269.039c-2.016-0.043-4.304,0.314-4.304,2.288c0,1.196,0.798,1.764,1.743,1.764c1.323,0,2.163-0.84,2.457-1.7
		c0.063-0.189,0.105-0.399,0.105-0.588V269.039z"/>
	<path d="M331.448,267.38c0-1.302-0.042-2.352-0.084-3.317h1.659l0.084,1.742h0.042c0.756-1.238,1.953-1.973,3.611-1.973
		c2.457,0,4.304,2.078,4.304,5.164c0,3.654-2.226,5.459-4.619,5.459c-1.344,0-2.52-0.588-3.128-1.596h-0.042v5.522h-1.827V267.38z
		 M333.275,270.088c0,0.273,0.042,0.525,0.084,0.756c0.336,1.281,1.449,2.163,2.771,2.163c1.953,0,3.086-1.596,3.086-3.927
		c0-2.036-1.071-3.779-3.023-3.779c-1.26,0-2.436,0.903-2.792,2.289c-0.063,0.23-0.126,0.504-0.126,0.756V270.088z"/>
	<path d="M345.623,261.145v2.918h2.646v1.406h-2.646v5.48c0,1.26,0.357,1.974,1.386,1.974c0.483,0,0.84-0.063,1.071-0.126
		l0.084,1.386c-0.357,0.147-0.924,0.252-1.638,0.252c-0.861,0-1.554-0.272-1.995-0.776c-0.525-0.547-0.714-1.449-0.714-2.646v-5.543
		h-1.575v-1.406h1.575v-2.436L345.623,261.145z"/>
	<path d="M351.25,269.479c0.042,2.499,1.638,3.527,3.485,3.527c1.323,0,2.121-0.231,2.813-0.524l0.315,1.322
		c-0.651,0.294-1.764,0.63-3.38,0.63c-3.128,0-4.997-2.058-4.997-5.123s1.806-5.479,4.766-5.479c3.317,0,4.199,2.918,4.199,4.787
		c0,0.377-0.042,0.672-0.063,0.86H351.25z M356.667,268.156c0.021-1.176-0.483-3.002-2.562-3.002c-1.869,0-2.688,1.722-2.834,3.002
		H356.667z"/>
	<path d="M360.743,267.232c0-1.196-0.021-2.225-0.084-3.17h1.617l0.063,1.994h0.084c0.462-1.364,1.575-2.225,2.813-2.225
		c0.21,0,0.357,0.021,0.525,0.062v1.742c-0.189-0.041-0.378-0.062-0.63-0.062c-1.302,0-2.226,0.986-2.478,2.373
		c-0.042,0.252-0.084,0.545-0.084,0.86v5.417h-1.827V267.232z"/>
	<path d="M367.357,272.335c0.546,0.356,1.512,0.735,2.436,0.735c1.344,0,1.974-0.672,1.974-1.512c0-0.883-0.525-1.365-1.89-1.869
		c-1.827-0.65-2.688-1.658-2.688-2.877c0-1.637,1.323-2.98,3.506-2.98c1.029,0,1.931,0.293,2.499,0.629l-0.462,1.344
		c-0.398-0.252-1.134-0.588-2.079-0.588c-1.092,0-1.701,0.631-1.701,1.387c0,0.84,0.609,1.217,1.932,1.721
		c1.764,0.672,2.666,1.555,2.666,3.066c0,1.784-1.385,3.044-3.8,3.044c-1.113,0-2.142-0.272-2.855-0.692L367.357,272.335z"/>
</g>
<line fill="none" stroke="#3FA9F5" stroke-width="5" stroke-miterlimit="10" x1="383.738" y1="190.368" x2="379.646" y2="154.29"/>
<g>
	<rect x="189.396" y="143.094" fill="none" width="44.348" height="22.392"/>
	<path d="M212.339,147.364v5.641h5.424v1.44h-5.424v5.688h-1.536v-5.688h-5.425v-1.44h5.425v-5.641H212.339z"/>
</g>
<g>
	<g>
		<line fill="none" stroke="#000000" stroke-width="5" stroke-miterlimit="10" x1="434" y1="149.5" x2="496" y2="149.5"/>
		<g>
			<path d="M526,149.5c-14.199,5.269-31.816,14.258-42.736,23.779l8.601-23.779l-8.601-23.774
				C494.184,135.247,511.801,144.236,526,149.5z"/>
		</g>
	</g>
</g>
<line fill="none" stroke="#000000" stroke-width="5" stroke-miterlimit="10" x1="536" y1="97.5" x2="760" y2="97.5"/>
<line fill="none" stroke="#000000" stroke-width="5" stroke-miterlimit="10" x1="536" y1="87.5" x2="760" y2="87.5"/>
<line fill="none" stroke="#FF931E" stroke-width="5" stroke-miterlimit="10" x1="715" y1="87.5" x2="760" y2="87.5"/>
<line fill="none" stroke="#FF931E" stroke-width="5" stroke-miterlimit="10" x1="715" y1="97.5" x2="760" y2="97.5"/>
<line fill="none" stroke="#3FA9F5" stroke-width="5" stroke-miterlimit="10" x1="536" y1="87.5" x2="572" y2="87.5"/>
<line fill="none" stroke="#3FA9F5" stroke-width="5" stroke-miterlimit="10" x1="536" y1="97.5" x2="572" y2="97.5"/>
<line fill="none" stroke="#000000" stroke-width="5" stroke-miterlimit="10" x1="562" y1="170.5" x2="706" y2="170.5"/>
<line fill="none" stroke="#000000" stroke-width="5" stroke-miterlimit="10" x1="562" y1="160.5" x2="706" y2="160.5"/>
<line fill="none" stroke="#FF931E" stroke-width="5" stroke-miterlimit="10" x1="672" y1="160.5" x2="706" y2="160.5"/>
<line fill="none" stroke="#FF931E" stroke-width="5" stroke-miterlimit="10" x1="672" y1="170.5" x2="706" y2="170.5"/>
<line fill="none" stroke="#3FA9F5" stroke-width="5" stroke-miterlimit="10" x1="562" y1="160.5" x2="598" y2="160.5"/>
<line fill="none" stroke="#3FA9F5" stroke-width="5" stroke-miterlimit="10" x1="562" y1="170.5" x2="598" y2="170.5"/>
<line fill="none" stroke="#000000" stroke-width="5" stroke-miterlimit="10" x1="552" y1="134.5" x2="723" y2="134.5"/>
<line fill="none" stroke="#000000" stroke-width="5" stroke-miterlimit="10" x1="552" y1="124.5" x2="723" y2="124.5"/>
<line fill="none" stroke="#FF931E" stroke-width="5" stroke-miterlimit="10" x1="688" y1="124.5" x2="723" y2="124.5"/>
<line fill="none" stroke="#FF931E" stroke-width="5" stroke-miterlimit="10" x1="688" y1="134.5" x2="723" y2="134.5"/>
<line fill="none" stroke="#3FA9F5" stroke-width="5" stroke-miterlimit="10" x1="552" y1="124.5" x2="588" y2="124.5"/>
<line fill="none" stroke="#3FA9F5" stroke-width="5" stroke-miterlimit="10" x1="552" y1="134.5" x2="588" y2="134.5"/>
<line fill="none" stroke="#000000" stroke-width="5" stroke-miterlimit="10" x1="533" y1="204.5" x2="771" y2="204.5"/>
<line fill="none" stroke="#000000" stroke-width="5" stroke-miterlimit="10" x1="533" y1="194.5" x2="771" y2="194.5"/>
<line fill="none" stroke="#FF931E" stroke-width="5" stroke-miterlimit="10" x1="722" y1="194.5" x2="771" y2="194.5"/>
<line fill="none" stroke="#FF931E" stroke-width="5" stroke-miterlimit="10" x1="722" y1="204.5" x2="771" y2="204.5"/>
<line fill="none" stroke="#3FA9F5" stroke-width="5" stroke-miterlimit="10" x1="533" y1="194.5" x2="569" y2="194.5"/>
<line fill="none" stroke="#3FA9F5" stroke-width="5" stroke-miterlimit="10" x1="533" y1="204.5" x2="569" y2="204.5"/>
<g>
</g>
<g>
</g>
<g>
</g>
<g>
</g>
<g>
</g>
<g>
</g>
<g>
</g>
<g>
</g>
<g>
</g>
<g>
</g>
<g>
</g>
<g>
</g>
<g>
</g>
<g>
</g>
<g>
</g>
<g>
</g>
</svg>
